solid OpenSCAD_Model
  facet normal -1 0 0
    outer loop
      vertex -101.522 -33.7677 0
      vertex -101.522 -0.998026 1
      vertex -101.522 -0.998026 0
    endloop
  endfacet
  facet normal -1 -0 0
    outer loop
      vertex -101.522 -0.998026 1
      vertex -101.522 -33.7677 0
      vertex -101.522 -33.7677 1
    endloop
  endfacet
  facet normal -0.367949 -0.929846 0
    outer loop
      vertex -42.2833 -99.6189 0
      vertex -39.948 -100.543 1
      vertex -42.2833 -99.6189 1
    endloop
  endfacet
  facet normal -0.367949 -0.929846 -0
    outer loop
      vertex -39.948 -100.543 1
      vertex -42.2833 -99.6189 0
      vertex -39.948 -100.543 0
    endloop
  endfacet
  facet normal 0 -1 0
    outer loop
      vertex -35.0235 -101.483 0
      vertex -0.998026 -101.483 1
      vertex -35.0235 -101.483 1
    endloop
  endfacet
  facet normal 0 -1 -0
    outer loop
      vertex -0.998026 -101.483 1
      vertex -35.0235 -101.483 0
      vertex -0.998026 -101.483 0
    endloop
  endfacet
  facet normal -0.707108 -0.707105 0
    outer loop
      vertex -96.1017 -47.4586 0
      vertex -72.4859 -71.0745 1
      vertex -96.1017 -47.4586 1
    endloop
  endfacet
  facet normal -0.707108 -0.707105 -0
    outer loop
      vertex -72.4859 -71.0745 1
      vertex -96.1017 -47.4586 0
      vertex -72.4859 -71.0745 0
    endloop
  endfacet
  facet normal -0.707105 -0.707108 0
    outer loop
      vertex -48.347 -95.2133 0
      vertex -71.0745 -72.4859 1
      vertex -71.0745 -72.4859 0
    endloop
  endfacet
  facet normal -0.707105 -0.707108 0
    outer loop
      vertex -71.0745 -72.4859 1
      vertex -48.347 -95.2133 0
      vertex -48.347 -95.2133 1
    endloop
  endfacet
  facet normal -0.481767 -0.876299 0
    outer loop
      vertex -44.4842 -98.4089 0
      vertex -42.2833 -99.6189 1
      vertex -44.4842 -98.4089 1
    endloop
  endfacet
  facet normal -0.481767 -0.876299 -0
    outer loop
      vertex -42.2833 -99.6189 1
      vertex -44.4842 -98.4089 0
      vertex -42.2833 -99.6189 0
    endloop
  endfacet
  facet normal -0.982261 -0.187518 0
    outer loop
      vertex -100.894 -38.7415 0
      vertex -101.365 -36.2743 1
      vertex -101.365 -36.2743 0
    endloop
  endfacet
  facet normal -0.982261 -0.187518 0
    outer loop
      vertex -101.365 -36.2743 1
      vertex -100.894 -38.7415 0
      vertex -100.894 -38.7415 1
    endloop
  endfacet
  facet normal 0 0 -1
    outer loop
      vertex -0.998026 -101.483 0
      vertex -35.0235 -101.483 0
      vertex -0.998026 -98.4372 0
    endloop
  endfacet
  facet normal 0 0 -1
    outer loop
      vertex -0.125333 -97.5079 0
      vertex 0 -92.8707 0
      vertex 0 -97.5 0
    endloop
  endfacet
  facet normal 0 0 -1
    outer loop
      vertex -0.24869 -97.5314 0
      vertex 0 -92.8707 0
      vertex -0.125333 -97.5079 0
    endloop
  endfacet
  facet normal 0 0 -1
    outer loop
      vertex -0.368124 -97.5702 0
      vertex 0 -92.8707 0
      vertex -0.24869 -97.5314 0
    endloop
  endfacet
  facet normal 0 0 -1
    outer loop
      vertex -0.481753 -97.6237 0
      vertex 0 -92.8707 0
      vertex -0.368124 -97.5702 0
    endloop
  endfacet
  facet normal 0 0 -1
    outer loop
      vertex -0.587785 -97.691 0
      vertex 0 -92.8707 0
      vertex -0.481753 -97.6237 0
    endloop
  endfacet
  facet normal 0 0 -1
    outer loop
      vertex -0.684546 -97.771 0
      vertex 0 -92.8707 0
      vertex -0.587785 -97.691 0
    endloop
  endfacet
  facet normal 0 0 -1
    outer loop
      vertex -0.770513 -97.8626 0
      vertex 0 -92.8707 0
      vertex -0.684546 -97.771 0
    endloop
  endfacet
  facet normal 0 0 -1
    outer loop
      vertex -0.844327 -97.9642 0
      vertex 0 -92.8707 0
      vertex -0.770513 -97.8626 0
    endloop
  endfacet
  facet normal 0 0 -1
    outer loop
      vertex -0.904826 -98.0742 0
      vertex 0 -92.8707 0
      vertex -0.844327 -97.9642 0
    endloop
  endfacet
  facet normal 0 0 -1
    outer loop
      vertex -0.951056 -98.191 0
      vertex 0 -92.8707 0
      vertex -0.904826 -98.0742 0
    endloop
  endfacet
  facet normal 0 0 -1
    outer loop
      vertex -36.7153 -92.8707 0
      vertex -0.951056 -98.191 0
      vertex -0.982286 -98.3126 0
    endloop
  endfacet
  facet normal 0 0 -1
    outer loop
      vertex -35.0235 -101.483 0
      vertex -0.982286 -98.3126 0
      vertex -0.998026 -98.4372 0
    endloop
  endfacet
  facet normal 0 0 -1
    outer loop
      vertex -36.7153 -92.8707 0
      vertex -0.982286 -98.3126 0
      vertex -35.0235 -101.483 0
    endloop
  endfacet
  facet normal 0 0 -1
    outer loop
      vertex -0.951056 -98.191 0
      vertex -36.7153 -92.8707 0
      vertex 0 -92.8707 0
    endloop
  endfacet
  facet normal 0 0 -1
    outer loop
      vertex -37.5153 -101.168 0
      vertex -36.7153 -92.8707 0
      vertex -35.0235 -101.483 0
    endloop
  endfacet
  facet normal -0 0 -1
    outer loop
      vertex -36.7153 -92.8707 0
      vertex -37.5153 -101.168 0
      vertex -37.3382 -92.792 0
    endloop
  endfacet
  facet normal 0 0 -1
    outer loop
      vertex -39.948 -100.543 0
      vertex -37.3382 -92.792 0
      vertex -37.5153 -101.168 0
    endloop
  endfacet
  facet normal -0 0 -1
    outer loop
      vertex -37.3382 -92.792 0
      vertex -39.948 -100.543 0
      vertex -37.9464 -92.6358 0
    endloop
  endfacet
  facet normal 0 0 -1
    outer loop
      vertex -42.2833 -99.6189 0
      vertex -37.9464 -92.6358 0
      vertex -39.948 -100.543 0
    endloop
  endfacet
  facet normal -0 0 -1
    outer loop
      vertex -37.9464 -92.6358 0
      vertex -42.2833 -99.6189 0
      vertex -38.5302 -92.4047 0
    endloop
  endfacet
  facet normal -0 0 -1
    outer loop
      vertex -38.5302 -92.4047 0
      vertex -42.2833 -99.6189 0
      vertex -39.0805 -92.1022 0
    endloop
  endfacet
  facet normal 0 0 -1
    outer loop
      vertex -44.4842 -98.4089 0
      vertex -39.0805 -92.1022 0
      vertex -42.2833 -99.6189 0
    endloop
  endfacet
  facet normal -0 0 -1
    outer loop
      vertex -39.0805 -92.1022 0
      vertex -44.4842 -98.4089 0
      vertex -39.5884 -91.7331 0
    endloop
  endfacet
  facet normal -0 0 -1
    outer loop
      vertex -39.5884 -91.7331 0
      vertex -44.4842 -98.4089 0
      vertex -40.0462 -91.3033 0
    endloop
  endfacet
  facet normal 0 0 -1
    outer loop
      vertex -46.5161 -96.9326 0
      vertex -40.0462 -91.3033 0
      vertex -44.4842 -98.4089 0
    endloop
  endfacet
  facet normal 0 0 -1
    outer loop
      vertex -48.347 -95.2133 0
      vertex -40.0462 -91.3033 0
      vertex -46.5161 -96.9326 0
    endloop
  endfacet
  facet normal 0 0 -1
    outer loop
      vertex -68.7091 -69.9888 0
      vertex -40.0462 -91.3033 0
      vertex -48.347 -95.2133 0
    endloop
  endfacet
  facet normal 0 0 -1
    outer loop
      vertex -68.6623 -69.4936 0
      vertex -40.0462 -91.3033 0
      vertex -68.6505 -69.6186 0
    endloop
  endfacet
  facet normal 0 0 -1
    outer loop
      vertex -68.6897 -69.371 0
      vertex -40.0462 -91.3033 0
      vertex -68.6623 -69.4936 0
    endloop
  endfacet
  facet normal 0 0 -1
    outer loop
      vertex -68.7323 -69.2529 0
      vertex -40.0462 -91.3033 0
      vertex -68.6897 -69.371 0
    endloop
  endfacet
  facet normal 0 0 -1
    outer loop
      vertex -68.7893 -69.141 0
      vertex -40.0462 -91.3033 0
      vertex -68.7323 -69.2529 0
    endloop
  endfacet
  facet normal 0 0 -1
    outer loop
      vertex -68.8599 -69.0371 0
      vertex -40.0462 -91.3033 0
      vertex -68.7893 -69.141 0
    endloop
  endfacet
  facet normal 0 0 -1
    outer loop
      vertex -68.9429 -68.9429 0
      vertex -40.0462 -91.3033 0
      vertex -68.8599 -69.0371 0
    endloop
  endfacet
  facet normal 0 0 -1
    outer loop
      vertex -91.5254 -39.8241 0
      vertex -68.9429 -68.9429 0
      vertex -69.0371 -68.8599 0
    endloop
  endfacet
  facet normal 0 0 -1
    outer loop
      vertex -68.9429 -68.9429 0
      vertex -91.5254 -39.8241 0
      vertex -40.0462 -91.3033 0
    endloop
  endfacet
  facet normal 0 0 -1
    outer loop
      vertex -69.141 -68.7893 0
      vertex -91.5254 -39.8241 0
      vertex -69.0371 -68.8599 0
    endloop
  endfacet
  facet normal 0 0 -1
    outer loop
      vertex -69.2529 -68.7323 0
      vertex -91.5254 -39.8241 0
      vertex -69.141 -68.7893 0
    endloop
  endfacet
  facet normal 0 0 -1
    outer loop
      vertex -69.371 -68.6897 0
      vertex -91.5254 -39.8241 0
      vertex -69.2529 -68.7323 0
    endloop
  endfacet
  facet normal 0 0 -1
    outer loop
      vertex -69.4936 -68.6623 0
      vertex -91.5254 -39.8241 0
      vertex -69.371 -68.6897 0
    endloop
  endfacet
  facet normal 0 0 -1
    outer loop
      vertex -69.6186 -68.6505 0
      vertex -91.5254 -39.8241 0
      vertex -69.4936 -68.6623 0
    endloop
  endfacet
  facet normal 0 0 -1
    outer loop
      vertex -69.7441 -68.6545 0
      vertex -91.5254 -39.8241 0
      vertex -69.6186 -68.6505 0
    endloop
  endfacet
  facet normal 0 0 -1
    outer loop
      vertex -69.8682 -68.6741 0
      vertex -91.5254 -39.8241 0
      vertex -69.7441 -68.6545 0
    endloop
  endfacet
  facet normal 0 0 -1
    outer loop
      vertex -69.9888 -68.7091 0
      vertex -91.5254 -39.8241 0
      vertex -69.8682 -68.6741 0
    endloop
  endfacet
  facet normal 0 0 -1
    outer loop
      vertex -70.104 -68.759 0
      vertex -91.5254 -39.8241 0
      vertex -69.9888 -68.7091 0
    endloop
  endfacet
  facet normal 0 0 -1
    outer loop
      vertex -96.1017 -47.4586 0
      vertex -70.104 -68.759 0
      vertex -70.2121 -68.8229 0
    endloop
  endfacet
  facet normal 0 0 -1
    outer loop
      vertex -96.1017 -47.4586 0
      vertex -70.2121 -68.8229 0
      vertex -70.3113 -68.8999 0
    endloop
  endfacet
  facet normal 0 0 -1
    outer loop
      vertex -96.1017 -47.4586 0
      vertex -70.3113 -68.8999 0
      vertex -72.4859 -71.0745 0
    endloop
  endfacet
  facet normal 0 0 -1
    outer loop
      vertex -70.104 -68.759 0
      vertex -96.1017 -47.4586 0
      vertex -91.5254 -39.8241 0
    endloop
  endfacet
  facet normal 0 0 -1
    outer loop
      vertex -97.7027 -45.5234 0
      vertex -91.5254 -39.8241 0
      vertex -96.1017 -47.4586 0
    endloop
  endfacet
  facet normal -0 0 -1
    outer loop
      vertex -91.5254 -39.8241 0
      vertex -97.7027 -45.5234 0
      vertex -91.9256 -39.3402 0
    endloop
  endfacet
  facet normal 0 0 -1
    outer loop
      vertex -99.0485 -43.4027 0
      vertex -91.9256 -39.3402 0
      vertex -97.7027 -45.5234 0
    endloop
  endfacet
  facet normal -0 0 -1
    outer loop
      vertex -91.9256 -39.3402 0
      vertex -99.0485 -43.4027 0
      vertex -92.2621 -38.8101 0
    endloop
  endfacet
  facet normal 0 0 -1
    outer loop
      vertex -100.118 -41.1302 0
      vertex -92.2621 -38.8101 0
      vertex -99.0485 -43.4027 0
    endloop
  endfacet
  facet normal -0 0 -1
    outer loop
      vertex -92.2621 -38.8101 0
      vertex -100.118 -41.1302 0
      vertex -92.5294 -38.2419 0
    endloop
  endfacet
  facet normal -0 0 -1
    outer loop
      vertex -92.5294 -38.2419 0
      vertex -100.118 -41.1302 0
      vertex -92.7235 -37.6448 0
    endloop
  endfacet
  facet normal 0 0 -1
    outer loop
      vertex -92.8806 -36.4013 0
      vertex -101.522 -33.7677 0
      vertex -92.8806 0 0
    endloop
  endfacet
  facet normal -0 0 -1
    outer loop
      vertex -92.8806 0 0
      vertex -97.5079 -0.125333 0
      vertex -97.5 0 0
    endloop
  endfacet
  facet normal 0 0 -1
    outer loop
      vertex -92.8806 0 0
      vertex -97.5314 -0.24869 0
      vertex -97.5079 -0.125333 0
    endloop
  endfacet
  facet normal 0 0 -1
    outer loop
      vertex -92.8806 0 0
      vertex -97.5702 -0.368124 0
      vertex -97.5314 -0.24869 0
    endloop
  endfacet
  facet normal 0 0 -1
    outer loop
      vertex -92.8806 0 0
      vertex -97.6237 -0.481753 0
      vertex -97.5702 -0.368124 0
    endloop
  endfacet
  facet normal 0 -0 -1
    outer loop
      vertex -98.191 -0.951056 0
      vertex -92.8806 0 0
      vertex -101.522 -33.7677 0
    endloop
  endfacet
  facet normal 0 0 -1
    outer loop
      vertex -100.894 -38.7415 0
      vertex -92.7235 -37.6448 0
      vertex -100.118 -41.1302 0
    endloop
  endfacet
  facet normal 0 0 -1
    outer loop
      vertex -92.8806 0 0
      vertex -97.691 -0.587785 0
      vertex -97.6237 -0.481753 0
    endloop
  endfacet
  facet normal 0 0 -1
    outer loop
      vertex -92.8806 0 0
      vertex -97.771 -0.684546 0
      vertex -97.691 -0.587785 0
    endloop
  endfacet
  facet normal 0 0 -1
    outer loop
      vertex -92.8806 0 0
      vertex -97.8626 -0.770513 0
      vertex -97.771 -0.684546 0
    endloop
  endfacet
  facet normal 0 0 -1
    outer loop
      vertex -92.8806 0 0
      vertex -97.9642 -0.844327 0
      vertex -97.8626 -0.770513 0
    endloop
  endfacet
  facet normal 0 0 -1
    outer loop
      vertex -92.8806 0 0
      vertex -98.0742 -0.904826 0
      vertex -97.9642 -0.844327 0
    endloop
  endfacet
  facet normal 0 0 -1
    outer loop
      vertex -92.8806 0 0
      vertex -98.191 -0.951056 0
      vertex -98.0742 -0.904826 0
    endloop
  endfacet
  facet normal 0 0 -1
    outer loop
      vertex -98.191 -0.951056 0
      vertex -101.522 -33.7677 0
      vertex -98.3126 -0.982286 0
    endloop
  endfacet
  facet normal -0 0 -1
    outer loop
      vertex -92.7235 -37.6448 0
      vertex -100.894 -38.7415 0
      vertex -92.8411 -37.028 0
    endloop
  endfacet
  facet normal -0 0 -1
    outer loop
      vertex -92.8411 -37.028 0
      vertex -100.894 -38.7415 0
      vertex -92.8806 -36.4013 0
    endloop
  endfacet
  facet normal 0 0 -1
    outer loop
      vertex -101.365 -36.2743 0
      vertex -92.8806 -36.4013 0
      vertex -100.894 -38.7415 0
    endloop
  endfacet
  facet normal 0 0 -1
    outer loop
      vertex -92.8806 -36.4013 0
      vertex -101.365 -36.2743 0
      vertex -101.522 -33.7677 0
    endloop
  endfacet
  facet normal 0 0 -1
    outer loop
      vertex -98.3126 -0.982286 0
      vertex -101.522 -33.7677 0
      vertex -98.4372 -0.998026 0
    endloop
  endfacet
  facet normal -0 0 -1
    outer loop
      vertex -98.4372 -0.998026 0
      vertex -101.522 -33.7677 0
      vertex -101.522 -0.998026 0
    endloop
  endfacet
  facet normal 0 0 -1
    outer loop
      vertex -40.0462 -91.3033 0
      vertex -68.6545 -69.7441 0
      vertex -68.6505 -69.6186 0
    endloop
  endfacet
  facet normal 0 0 -1
    outer loop
      vertex -40.0462 -91.3033 0
      vertex -68.6741 -69.8682 0
      vertex -68.6545 -69.7441 0
    endloop
  endfacet
  facet normal 0 0 -1
    outer loop
      vertex -40.0462 -91.3033 0
      vertex -68.7091 -69.9888 0
      vertex -68.6741 -69.8682 0
    endloop
  endfacet
  facet normal 0 0 -1
    outer loop
      vertex -48.347 -95.2133 0
      vertex -68.759 -70.104 0
      vertex -68.7091 -69.9888 0
    endloop
  endfacet
  facet normal 0 0 -1
    outer loop
      vertex -48.347 -95.2133 0
      vertex -68.8229 -70.2121 0
      vertex -68.759 -70.104 0
    endloop
  endfacet
  facet normal 0 0 -1
    outer loop
      vertex -48.347 -95.2133 0
      vertex -68.8999 -70.3113 0
      vertex -68.8229 -70.2121 0
    endloop
  endfacet
  facet normal 0 -0 -1
    outer loop
      vertex -68.8999 -70.3113 0
      vertex -48.347 -95.2133 0
      vertex -71.0745 -72.4859 0
    endloop
  endfacet
  facet normal -0.248835 -0.968546 0
    outer loop
      vertex -39.948 -100.543 0
      vertex -37.5153 -101.168 1
      vertex -39.948 -100.543 1
    endloop
  endfacet
  facet normal -0.248835 -0.968546 -0
    outer loop
      vertex -37.5153 -101.168 1
      vertex -39.948 -100.543 0
      vertex -37.5153 -101.168 0
    endloop
  endfacet
  facet normal -0.770501 -0.637439 0
    outer loop
      vertex -96.1017 -47.4586 0
      vertex -97.7027 -45.5234 1
      vertex -97.7027 -45.5234 0
    endloop
  endfacet
  facet normal -0.770501 -0.637439 0
    outer loop
      vertex -97.7027 -45.5234 1
      vertex -96.1017 -47.4586 0
      vertex -96.1017 -47.4586 1
    endloop
  endfacet
  facet normal -0.998044 -0.0625121 0
    outer loop
      vertex -101.365 -36.2743 0
      vertex -101.522 -33.7677 1
      vertex -101.522 -33.7677 0
    endloop
  endfacet
  facet normal -0.998044 -0.0625121 0
    outer loop
      vertex -101.522 -33.7677 1
      vertex -101.365 -36.2743 0
      vertex -101.365 -36.2743 1
    endloop
  endfacet
  facet normal -0.125416 -0.992104 0
    outer loop
      vertex -37.5153 -101.168 0
      vertex -35.0235 -101.483 1
      vertex -37.5153 -101.168 1
    endloop
  endfacet
  facet normal -0.125416 -0.992104 -0
    outer loop
      vertex -35.0235 -101.483 1
      vertex -37.5153 -101.168 0
      vertex -35.0235 -101.483 0
    endloop
  endfacet
  facet normal -0.684541 -0.728974 0
    outer loop
      vertex -48.347 -95.2133 0
      vertex -46.5161 -96.9326 1
      vertex -48.347 -95.2133 1
    endloop
  endfacet
  facet normal -0.684541 -0.728974 -0
    outer loop
      vertex -46.5161 -96.9326 1
      vertex -48.347 -95.2133 0
      vertex -46.5161 -96.9326 0
    endloop
  endfacet
  facet normal -0.904805 -0.425826 0
    outer loop
      vertex -99.0485 -43.4027 0
      vertex -100.118 -41.1302 1
      vertex -100.118 -41.1302 0
    endloop
  endfacet
  facet normal -0.904805 -0.425826 0
    outer loop
      vertex -100.118 -41.1302 1
      vertex -99.0485 -43.4027 0
      vertex -99.0485 -43.4027 1
    endloop
  endfacet
  facet normal -0.951072 -0.308968 0
    outer loop
      vertex -100.118 -41.1302 0
      vertex -100.894 -38.7415 1
      vertex -100.894 -38.7415 0
    endloop
  endfacet
  facet normal -0.951072 -0.308968 0
    outer loop
      vertex -100.894 -38.7415 1
      vertex -100.118 -41.1302 0
      vertex -100.118 -41.1302 1
    endloop
  endfacet
  facet normal -0.587795 -0.80901 0
    outer loop
      vertex -46.5161 -96.9326 0
      vertex -44.4842 -98.4089 1
      vertex -46.5161 -96.9326 1
    endloop
  endfacet
  facet normal -0.587795 -0.80901 -0
    outer loop
      vertex -44.4842 -98.4089 1
      vertex -46.5161 -96.9326 0
      vertex -44.4842 -98.4089 0
    endloop
  endfacet
  facet normal -0.844335 -0.535816 0
    outer loop
      vertex -97.7027 -45.5234 0
      vertex -99.0485 -43.4027 1
      vertex -99.0485 -43.4027 0
    endloop
  endfacet
  facet normal -0.844335 -0.535816 0
    outer loop
      vertex -99.0485 -43.4027 1
      vertex -97.7027 -45.5234 0
      vertex -97.7027 -45.5234 1
    endloop
  endfacet
  facet normal 1 -0 0
    outer loop
      vertex -92.8806 -36.4013 1
      vertex -92.8806 0 0
      vertex -92.8806 0 1
    endloop
  endfacet
  facet normal 1 0 0
    outer loop
      vertex -92.8806 0 0
      vertex -92.8806 -36.4013 1
      vertex -92.8806 -36.4013 0
    endloop
  endfacet
  facet normal 0.770605 0.637313 0
    outer loop
      vertex -91.5254 -39.8241 1
      vertex -91.9256 -39.3402 0
      vertex -91.9256 -39.3402 1
    endloop
  endfacet
  facet normal 0.770605 0.637313 0
    outer loop
      vertex -91.9256 -39.3402 0
      vertex -91.5254 -39.8241 1
      vertex -91.5254 -39.8241 0
    endloop
  endfacet
  facet normal 0.368066 0.9298 -0
    outer loop
      vertex -37.9464 -92.6358 0
      vertex -38.5302 -92.4047 1
      vertex -37.9464 -92.6358 1
    endloop
  endfacet
  facet normal 0.368066 0.9298 0
    outer loop
      vertex -38.5302 -92.4047 1
      vertex -37.9464 -92.6358 0
      vertex -38.5302 -92.4047 0
    endloop
  endfacet
  facet normal 0 1 -0
    outer loop
      vertex 0 -92.8707 0
      vertex -36.7153 -92.8707 1
      vertex 0 -92.8707 1
    endloop
  endfacet
  facet normal 0 1 0
    outer loop
      vertex -36.7153 -92.8707 1
      vertex 0 -92.8707 0
      vertex -36.7153 -92.8707 0
    endloop
  endfacet
  facet normal 0.707107 0.707107 0
    outer loop
      vertex -40.0462 -91.3033 1
      vertex -91.5254 -39.8241 0
      vertex -91.5254 -39.8241 1
    endloop
  endfacet
  facet normal 0.707107 0.707107 0
    outer loop
      vertex -91.5254 -39.8241 0
      vertex -40.0462 -91.3033 1
      vertex -40.0462 -91.3033 0
    endloop
  endfacet
  facet normal 0.125348 0.992113 -0
    outer loop
      vertex -36.7153 -92.8707 0
      vertex -37.3382 -92.792 1
      vertex -36.7153 -92.8707 1
    endloop
  endfacet
  facet normal 0.125348 0.992113 0
    outer loop
      vertex -37.3382 -92.792 1
      vertex -36.7153 -92.8707 0
      vertex -37.3382 -92.792 0
    endloop
  endfacet
  facet normal 0.904873 0.425682 0
    outer loop
      vertex -92.2621 -38.8101 1
      vertex -92.5294 -38.2419 0
      vertex -92.5294 -38.2419 1
    endloop
  endfacet
  facet normal 0.904873 0.425682 0
    outer loop
      vertex -92.5294 -38.2419 0
      vertex -92.2621 -38.8101 1
      vertex -92.2621 -38.8101 0
    endloop
  endfacet
  facet normal 0.982305 0.187288 0
    outer loop
      vertex -92.7235 -37.6448 1
      vertex -92.8411 -37.028 0
      vertex -92.8411 -37.028 1
    endloop
  endfacet
  facet normal 0.982305 0.187288 0
    outer loop
      vertex -92.8411 -37.028 0
      vertex -92.7235 -37.6448 1
      vertex -92.7235 -37.6448 0
    endloop
  endfacet
  facet normal 0.248751 0.968568 -0
    outer loop
      vertex -37.3382 -92.792 0
      vertex -37.9464 -92.6358 1
      vertex -37.3382 -92.792 1
    endloop
  endfacet
  facet normal 0.248751 0.968568 0
    outer loop
      vertex -37.9464 -92.6358 1
      vertex -37.3382 -92.792 0
      vertex -37.9464 -92.6358 0
    endloop
  endfacet
  facet normal 0.844264 0.535927 0
    outer loop
      vertex -91.9256 -39.3402 1
      vertex -92.2621 -38.8101 0
      vertex -92.2621 -38.8101 1
    endloop
  endfacet
  facet normal 0.844264 0.535927 0
    outer loop
      vertex -92.2621 -38.8101 0
      vertex -91.9256 -39.3402 1
      vertex -91.9256 -39.3402 0
    endloop
  endfacet
  facet normal 0.951014 0.309147 0
    outer loop
      vertex -92.5294 -38.2419 1
      vertex -92.7235 -37.6448 0
      vertex -92.7235 -37.6448 1
    endloop
  endfacet
  facet normal 0.951014 0.309147 0
    outer loop
      vertex -92.7235 -37.6448 0
      vertex -92.5294 -38.2419 1
      vertex -92.5294 -38.2419 0
    endloop
  endfacet
  facet normal 0.99802 0.0629037 0
    outer loop
      vertex -92.8411 -37.028 1
      vertex -92.8806 -36.4013 0
      vertex -92.8806 -36.4013 1
    endloop
  endfacet
  facet normal 0.99802 0.0629037 0
    outer loop
      vertex -92.8806 -36.4013 0
      vertex -92.8411 -37.028 1
      vertex -92.8411 -37.028 0
    endloop
  endfacet
  facet normal 0.481717 0.876327 -0
    outer loop
      vertex -38.5302 -92.4047 0
      vertex -39.0805 -92.1022 1
      vertex -38.5302 -92.4047 1
    endloop
  endfacet
  facet normal 0.481717 0.876327 0
    outer loop
      vertex -39.0805 -92.1022 1
      vertex -38.5302 -92.4047 0
      vertex -39.0805 -92.1022 0
    endloop
  endfacet
  facet normal 0.68446 0.72905 -0
    outer loop
      vertex -39.5884 -91.7331 0
      vertex -40.0462 -91.3033 1
      vertex -39.5884 -91.7331 1
    endloop
  endfacet
  facet normal 0.68446 0.72905 0
    outer loop
      vertex -40.0462 -91.3033 1
      vertex -39.5884 -91.7331 0
      vertex -40.0462 -91.3033 0
    endloop
  endfacet
  facet normal 0.587878 0.80895 -0
    outer loop
      vertex -39.0805 -92.1022 0
      vertex -39.5884 -91.7331 1
      vertex -39.0805 -92.1022 1
    endloop
  endfacet
  facet normal 0.587878 0.80895 0
    outer loop
      vertex -39.5884 -91.7331 1
      vertex -39.0805 -92.1022 0
      vertex -39.5884 -91.7331 0
    endloop
  endfacet
  facet normal 0 1 -0
    outer loop
      vertex -98.4372 -0.998026 0
      vertex -101.522 -0.998026 1
      vertex -98.4372 -0.998026 1
    endloop
  endfacet
  facet normal 0 1 0
    outer loop
      vertex -101.522 -0.998026 1
      vertex -98.4372 -0.998026 0
      vertex -101.522 -0.998026 0
    endloop
  endfacet
  facet normal -0.7707 0.637199 0
    outer loop
      vertex -97.771 -0.684546 0
      vertex -97.691 -0.587785 1
      vertex -97.691 -0.587785 0
    endloop
  endfacet
  facet normal -0.7707 0.637199 0
    outer loop
      vertex -97.691 -0.587785 1
      vertex -97.771 -0.684546 0
      vertex -97.771 -0.684546 1
    endloop
  endfacet
  facet normal -0.998019 0.0629072 0
    outer loop
      vertex -97.5079 -0.125333 0
      vertex -97.5 0 1
      vertex -97.5 0 0
    endloop
  endfacet
  facet normal -0.998019 0.0629072 0
    outer loop
      vertex -97.5 0 1
      vertex -97.5079 -0.125333 0
      vertex -97.5079 -0.125333 1
    endloop
  endfacet
  facet normal -0.481913 0.876219 0
    outer loop
      vertex -97.9642 -0.844327 0
      vertex -98.0742 -0.904826 1
      vertex -97.9642 -0.844327 1
    endloop
  endfacet
  facet normal -0.481913 0.876219 0
    outer loop
      vertex -98.0742 -0.904826 1
      vertex -97.9642 -0.844327 0
      vertex -98.0742 -0.904826 0
    endloop
  endfacet
  facet normal -0.587771 0.809027 0
    outer loop
      vertex -97.8626 -0.770513 0
      vertex -97.9642 -0.844327 1
      vertex -97.8626 -0.770513 1
    endloop
  endfacet
  facet normal -0.587771 0.809027 0
    outer loop
      vertex -97.9642 -0.844327 1
      vertex -97.8626 -0.770513 0
      vertex -97.9642 -0.844327 0
    endloop
  endfacet
  facet normal -0.844292 0.535884 0
    outer loop
      vertex -97.691 -0.587785 0
      vertex -97.6237 -0.481753 1
      vertex -97.6237 -0.481753 0
    endloop
  endfacet
  facet normal -0.844292 0.535884 0
    outer loop
      vertex -97.6237 -0.481753 1
      vertex -97.691 -0.587785 0
      vertex -97.691 -0.587785 1
    endloop
  endfacet
  facet normal -0.982334 0.187138 0
    outer loop
      vertex -97.5314 -0.24869 0
      vertex -97.5079 -0.125333 1
      vertex -97.5079 -0.125333 0
    endloop
  endfacet
  facet normal -0.982334 0.187138 0
    outer loop
      vertex -97.5079 -0.125333 1
      vertex -97.5314 -0.24869 0
      vertex -97.5314 -0.24869 1
    endloop
  endfacet
  facet normal -0.368026 0.929816 0
    outer loop
      vertex -98.0742 -0.904826 0
      vertex -98.191 -0.951056 1
      vertex -98.0742 -0.904826 1
    endloop
  endfacet
  facet normal -0.368026 0.929816 0
    outer loop
      vertex -98.191 -0.951056 1
      vertex -98.0742 -0.904826 0
      vertex -98.191 -0.951056 0
    endloop
  endfacet
  facet normal -0.125328 0.992115 0
    outer loop
      vertex -98.3126 -0.982286 0
      vertex -98.4372 -0.998026 1
      vertex -98.3126 -0.982286 1
    endloop
  endfacet
  facet normal -0.125328 0.992115 0
    outer loop
      vertex -98.4372 -0.998026 1
      vertex -98.3126 -0.982286 0
      vertex -98.4372 -0.998026 0
    endloop
  endfacet
  facet normal -0.248753 0.968567 0
    outer loop
      vertex -98.191 -0.951056 0
      vertex -98.3126 -0.982286 1
      vertex -98.191 -0.951056 1
    endloop
  endfacet
  facet normal -0.248753 0.968567 0
    outer loop
      vertex -98.3126 -0.982286 1
      vertex -98.191 -0.951056 0
      vertex -98.3126 -0.982286 0
    endloop
  endfacet
  facet normal -0.951072 0.30897 0
    outer loop
      vertex -97.5702 -0.368124 0
      vertex -97.5314 -0.24869 1
      vertex -97.5314 -0.24869 0
    endloop
  endfacet
  facet normal -0.951072 0.30897 0
    outer loop
      vertex -97.5314 -0.24869 1
      vertex -97.5702 -0.368124 0
      vertex -97.5702 -0.368124 1
    endloop
  endfacet
  facet normal -0.904734 0.425976 0
    outer loop
      vertex -97.6237 -0.481753 0
      vertex -97.5702 -0.368124 1
      vertex -97.5702 -0.368124 0
    endloop
  endfacet
  facet normal -0.904734 0.425976 0
    outer loop
      vertex -97.5702 -0.368124 1
      vertex -97.6237 -0.481753 0
      vertex -97.6237 -0.481753 1
    endloop
  endfacet
  facet normal -0.684331 0.729172 0
    outer loop
      vertex -97.771 -0.684546 0
      vertex -97.8626 -0.770513 1
      vertex -97.771 -0.684546 1
    endloop
  endfacet
  facet normal -0.684331 0.729172 0
    outer loop
      vertex -97.8626 -0.770513 1
      vertex -97.771 -0.684546 0
      vertex -97.8626 -0.770513 0
    endloop
  endfacet
  facet normal -0.707107 0.707107 0
    outer loop
      vertex -71.0745 -72.4859 0
      vertex -68.8999 -70.3113 1
      vertex -68.8999 -70.3113 0
    endloop
  endfacet
  facet normal -0.707107 0.707107 0
    outer loop
      vertex -68.8999 -70.3113 1
      vertex -71.0745 -72.4859 0
      vertex -71.0745 -72.4859 1
    endloop
  endfacet
  facet normal -0.789952 0.613168 0
    outer loop
      vertex -68.8999 -70.3113 0
      vertex -68.8229 -70.2121 1
      vertex -68.8229 -70.2121 0
    endloop
  endfacet
  facet normal -0.789952 0.613168 0
    outer loop
      vertex -68.8229 -70.2121 1
      vertex -68.8999 -70.3113 0
      vertex -68.8999 -70.3113 1
    endloop
  endfacet
  facet normal 0.707107 -0.707107 0
    outer loop
      vertex -72.4859 -71.0745 1
      vertex -70.3113 -68.8999 0
      vertex -70.3113 -68.8999 1
    endloop
  endfacet
  facet normal 0.707107 -0.707107 0
    outer loop
      vertex -70.3113 -68.8999 0
      vertex -72.4859 -71.0745 1
      vertex -72.4859 -71.0745 0
    endloop
  endfacet
  facet normal -0.21811 -0.975924 0
    outer loop
      vertex -69.4936 -68.6623 0
      vertex -69.371 -68.6897 1
      vertex -69.4936 -68.6623 1
    endloop
  endfacet
  facet normal -0.21811 -0.975924 -0
    outer loop
      vertex -69.371 -68.6897 1
      vertex -69.4936 -68.6623 0
      vertex -69.371 -68.6897 0
    endloop
  endfacet
  facet normal 0.613168 -0.789952 0
    outer loop
      vertex -70.3113 -68.8999 0
      vertex -70.2121 -68.8229 1
      vertex -70.3113 -68.8999 1
    endloop
  endfacet
  facet normal 0.613168 -0.789952 0
    outer loop
      vertex -70.2121 -68.8229 1
      vertex -70.3113 -68.8999 0
      vertex -70.2121 -68.8229 0
    endloop
  endfacet
  facet normal -0.562027 -0.827119 0
    outer loop
      vertex -69.141 -68.7893 0
      vertex -69.0371 -68.8599 1
      vertex -69.141 -68.7893 1
    endloop
  endfacet
  facet normal -0.562027 -0.827119 -0
    outer loop
      vertex -69.0371 -68.8599 1
      vertex -69.141 -68.7893 0
      vertex -69.0371 -68.8599 0
    endloop
  endfacet
  facet normal -0.45389 -0.891058 0
    outer loop
      vertex -69.2529 -68.7323 0
      vertex -69.141 -68.7893 1
      vertex -69.2529 -68.7323 1
    endloop
  endfacet
  facet normal -0.45389 -0.891058 -0
    outer loop
      vertex -69.141 -68.7893 1
      vertex -69.2529 -68.7323 0
      vertex -69.141 -68.7893 0
    endloop
  endfacet
  facet normal 0.278715 -0.960374 0
    outer loop
      vertex -69.9888 -68.7091 0
      vertex -69.8682 -68.6741 1
      vertex -69.9888 -68.7091 1
    endloop
  endfacet
  facet normal 0.278715 -0.960374 0
    outer loop
      vertex -69.8682 -68.6741 1
      vertex -69.9888 -68.7091 0
      vertex -69.8682 -68.6741 0
    endloop
  endfacet
  facet normal -0.960374 0.278715 0
    outer loop
      vertex -68.7091 -69.9888 0
      vertex -68.6741 -69.8682 1
      vertex -68.6741 -69.8682 0
    endloop
  endfacet
  facet normal -0.960374 0.278715 0
    outer loop
      vertex -68.6741 -69.8682 1
      vertex -68.7091 -69.9888 0
      vertex -68.7091 -69.9888 1
    endloop
  endfacet
  facet normal -0.987757 0.156003 0
    outer loop
      vertex -68.6741 -69.8682 0
      vertex -68.6545 -69.7441 1
      vertex -68.6545 -69.7441 0
    endloop
  endfacet
  facet normal -0.987757 0.156003 0
    outer loop
      vertex -68.6545 -69.7441 1
      vertex -68.6741 -69.8682 0
      vertex -68.6741 -69.8682 1
    endloop
  endfacet
  facet normal -0.827119 -0.562027 0
    outer loop
      vertex -68.7893 -69.141 0
      vertex -68.8599 -69.0371 1
      vertex -68.8599 -69.0371 0
    endloop
  endfacet
  facet normal -0.827119 -0.562027 0
    outer loop
      vertex -68.8599 -69.0371 1
      vertex -68.7893 -69.141 0
      vertex -68.7893 -69.141 1
    endloop
  endfacet
  facet normal -0.339312 -0.940674 0
    outer loop
      vertex -69.371 -68.6897 0
      vertex -69.2529 -68.7323 1
      vertex -69.371 -68.6897 1
    endloop
  endfacet
  facet normal -0.339312 -0.940674 -0
    outer loop
      vertex -69.2529 -68.7323 1
      vertex -69.371 -68.6897 0
      vertex -69.2529 -68.7323 0
    endloop
  endfacet
  facet normal -0.661095 -0.750303 0
    outer loop
      vertex -69.0371 -68.8599 0
      vertex -68.9429 -68.9429 1
      vertex -69.0371 -68.8599 1
    endloop
  endfacet
  facet normal -0.661095 -0.750303 -0
    outer loop
      vertex -68.9429 -68.9429 1
      vertex -69.0371 -68.8599 0
      vertex -68.9429 -68.9429 0
    endloop
  endfacet
  facet normal -0.750303 -0.661095 0
    outer loop
      vertex -68.8599 -69.0371 0
      vertex -68.9429 -68.9429 1
      vertex -68.9429 -68.9429 0
    endloop
  endfacet
  facet normal -0.750303 -0.661095 0
    outer loop
      vertex -68.9429 -68.9429 1
      vertex -68.8599 -69.0371 0
      vertex -68.8599 -69.0371 1
    endloop
  endfacet
  facet normal 0.156003 -0.987757 0
    outer loop
      vertex -69.8682 -68.6741 0
      vertex -69.7441 -68.6545 1
      vertex -69.8682 -68.6741 1
    endloop
  endfacet
  facet normal 0.156003 -0.987757 0
    outer loop
      vertex -69.7441 -68.6545 1
      vertex -69.8682 -68.6741 0
      vertex -69.7441 -68.6545 0
    endloop
  endfacet
  facet normal 0.0318563 -0.999492 0
    outer loop
      vertex -69.7441 -68.6545 0
      vertex -69.6186 -68.6505 1
      vertex -69.7441 -68.6545 1
    endloop
  endfacet
  facet normal 0.0318563 -0.999492 0
    outer loop
      vertex -69.6186 -68.6505 1
      vertex -69.7441 -68.6545 0
      vertex -69.6186 -68.6505 0
    endloop
  endfacet
  facet normal -0.0939822 -0.995574 0
    outer loop
      vertex -69.6186 -68.6505 0
      vertex -69.4936 -68.6623 1
      vertex -69.6186 -68.6505 1
    endloop
  endfacet
  facet normal -0.0939822 -0.995574 -0
    outer loop
      vertex -69.4936 -68.6623 1
      vertex -69.6186 -68.6505 0
      vertex -69.4936 -68.6623 0
    endloop
  endfacet
  facet normal 0.508863 -0.860847 0
    outer loop
      vertex -70.2121 -68.8229 0
      vertex -70.104 -68.759 1
      vertex -70.2121 -68.8229 1
    endloop
  endfacet
  facet normal 0.508863 -0.860847 0
    outer loop
      vertex -70.104 -68.759 1
      vertex -70.2121 -68.8229 0
      vertex -70.104 -68.759 0
    endloop
  endfacet
  facet normal 0.397473 -0.917614 0
    outer loop
      vertex -70.104 -68.759 0
      vertex -69.9888 -68.7091 1
      vertex -70.104 -68.759 1
    endloop
  endfacet
  facet normal 0.397473 -0.917614 0
    outer loop
      vertex -69.9888 -68.7091 1
      vertex -70.104 -68.759 0
      vertex -69.9888 -68.7091 0
    endloop
  endfacet
  facet normal -0.917614 0.397473 0
    outer loop
      vertex -68.759 -70.104 0
      vertex -68.7091 -69.9888 1
      vertex -68.7091 -69.9888 0
    endloop
  endfacet
  facet normal -0.917614 0.397473 0
    outer loop
      vertex -68.7091 -69.9888 1
      vertex -68.759 -70.104 0
      vertex -68.759 -70.104 1
    endloop
  endfacet
  facet normal -0.860847 0.508863 0
    outer loop
      vertex -68.8229 -70.2121 0
      vertex -68.759 -70.104 1
      vertex -68.759 -70.104 0
    endloop
  endfacet
  facet normal -0.860847 0.508863 0
    outer loop
      vertex -68.759 -70.104 1
      vertex -68.8229 -70.2121 0
      vertex -68.8229 -70.2121 1
    endloop
  endfacet
  facet normal -0.975924 -0.21811 0
    outer loop
      vertex -68.6623 -69.4936 0
      vertex -68.6897 -69.371 1
      vertex -68.6897 -69.371 0
    endloop
  endfacet
  facet normal -0.975924 -0.21811 0
    outer loop
      vertex -68.6897 -69.371 1
      vertex -68.6623 -69.4936 0
      vertex -68.6623 -69.4936 1
    endloop
  endfacet
  facet normal -0.995574 -0.0939822 0
    outer loop
      vertex -68.6505 -69.6186 0
      vertex -68.6623 -69.4936 1
      vertex -68.6623 -69.4936 0
    endloop
  endfacet
  facet normal -0.995574 -0.0939822 0
    outer loop
      vertex -68.6623 -69.4936 1
      vertex -68.6505 -69.6186 0
      vertex -68.6505 -69.6186 1
    endloop
  endfacet
  facet normal -0.999492 0.0318563 0
    outer loop
      vertex -68.6545 -69.7441 0
      vertex -68.6505 -69.6186 1
      vertex -68.6505 -69.6186 0
    endloop
  endfacet
  facet normal -0.999492 0.0318563 0
    outer loop
      vertex -68.6505 -69.6186 1
      vertex -68.6545 -69.7441 0
      vertex -68.6545 -69.7441 1
    endloop
  endfacet
  facet normal -0.891058 -0.45389 0
    outer loop
      vertex -68.7323 -69.2529 0
      vertex -68.7893 -69.141 1
      vertex -68.7893 -69.141 0
    endloop
  endfacet
  facet normal -0.891058 -0.45389 0
    outer loop
      vertex -68.7893 -69.141 1
      vertex -68.7323 -69.2529 0
      vertex -68.7323 -69.2529 1
    endloop
  endfacet
  facet normal -0.940674 -0.339312 0
    outer loop
      vertex -68.6897 -69.371 0
      vertex -68.7323 -69.2529 1
      vertex -68.7323 -69.2529 0
    endloop
  endfacet
  facet normal -0.940674 -0.339312 0
    outer loop
      vertex -68.7323 -69.2529 1
      vertex -68.6897 -69.371 0
      vertex -68.6897 -69.371 1
    endloop
  endfacet
  facet normal 1 -0 0
    outer loop
      vertex -0.998026 -101.483 1
      vertex -0.998026 -98.4372 0
      vertex -0.998026 -98.4372 1
    endloop
  endfacet
  facet normal 1 0 0
    outer loop
      vertex -0.998026 -98.4372 0
      vertex -0.998026 -101.483 1
      vertex -0.998026 -101.483 0
    endloop
  endfacet
  facet normal 0.637199 -0.7707 0
    outer loop
      vertex -0.684546 -97.771 0
      vertex -0.587785 -97.691 1
      vertex -0.684546 -97.771 1
    endloop
  endfacet
  facet normal 0.637199 -0.7707 0
    outer loop
      vertex -0.587785 -97.691 1
      vertex -0.684546 -97.771 0
      vertex -0.587785 -97.691 0
    endloop
  endfacet
  facet normal 0.187138 -0.982334 0
    outer loop
      vertex -0.24869 -97.5314 0
      vertex -0.125333 -97.5079 1
      vertex -0.24869 -97.5314 1
    endloop
  endfacet
  facet normal 0.187138 -0.982334 0
    outer loop
      vertex -0.125333 -97.5079 1
      vertex -0.24869 -97.5314 0
      vertex -0.125333 -97.5079 0
    endloop
  endfacet
  facet normal 0.876219 -0.481913 0
    outer loop
      vertex -0.904826 -98.0742 1
      vertex -0.844327 -97.9642 0
      vertex -0.844327 -97.9642 1
    endloop
  endfacet
  facet normal 0.876219 -0.481913 0
    outer loop
      vertex -0.844327 -97.9642 0
      vertex -0.904826 -98.0742 1
      vertex -0.904826 -98.0742 0
    endloop
  endfacet
  facet normal 0.929816 -0.368026 0
    outer loop
      vertex -0.951056 -98.191 1
      vertex -0.904826 -98.0742 0
      vertex -0.904826 -98.0742 1
    endloop
  endfacet
  facet normal 0.929816 -0.368026 0
    outer loop
      vertex -0.904826 -98.0742 0
      vertex -0.951056 -98.191 1
      vertex -0.951056 -98.191 0
    endloop
  endfacet
  facet normal 0.992115 -0.125328 0
    outer loop
      vertex -0.998026 -98.4372 1
      vertex -0.982286 -98.3126 0
      vertex -0.982286 -98.3126 1
    endloop
  endfacet
  facet normal 0.992115 -0.125328 0
    outer loop
      vertex -0.982286 -98.3126 0
      vertex -0.998026 -98.4372 1
      vertex -0.998026 -98.4372 0
    endloop
  endfacet
  facet normal 0.535884 -0.844292 0
    outer loop
      vertex -0.587785 -97.691 0
      vertex -0.481753 -97.6237 1
      vertex -0.587785 -97.691 1
    endloop
  endfacet
  facet normal 0.535884 -0.844292 0
    outer loop
      vertex -0.481753 -97.6237 1
      vertex -0.587785 -97.691 0
      vertex -0.481753 -97.6237 0
    endloop
  endfacet
  facet normal 0.425976 -0.904734 0
    outer loop
      vertex -0.481753 -97.6237 0
      vertex -0.368124 -97.5702 1
      vertex -0.481753 -97.6237 1
    endloop
  endfacet
  facet normal 0.425976 -0.904734 0
    outer loop
      vertex -0.368124 -97.5702 1
      vertex -0.481753 -97.6237 0
      vertex -0.368124 -97.5702 0
    endloop
  endfacet
  facet normal 0.30897 -0.951072 0
    outer loop
      vertex -0.368124 -97.5702 0
      vertex -0.24869 -97.5314 1
      vertex -0.368124 -97.5702 1
    endloop
  endfacet
  facet normal 0.30897 -0.951072 0
    outer loop
      vertex -0.24869 -97.5314 1
      vertex -0.368124 -97.5702 0
      vertex -0.24869 -97.5314 0
    endloop
  endfacet
  facet normal 0.0629072 -0.998019 0
    outer loop
      vertex -0.125333 -97.5079 0
      vertex 0 -97.5 1
      vertex -0.125333 -97.5079 1
    endloop
  endfacet
  facet normal 0.0629072 -0.998019 0
    outer loop
      vertex 0 -97.5 1
      vertex -0.125333 -97.5079 0
      vertex 0 -97.5 0
    endloop
  endfacet
  facet normal 0.809027 -0.587771 0
    outer loop
      vertex -0.844327 -97.9642 1
      vertex -0.770513 -97.8626 0
      vertex -0.770513 -97.8626 1
    endloop
  endfacet
  facet normal 0.809027 -0.587771 0
    outer loop
      vertex -0.770513 -97.8626 0
      vertex -0.844327 -97.9642 1
      vertex -0.844327 -97.9642 0
    endloop
  endfacet
  facet normal 0.729172 -0.684331 0
    outer loop
      vertex -0.770513 -97.8626 1
      vertex -0.684546 -97.771 0
      vertex -0.684546 -97.771 1
    endloop
  endfacet
  facet normal 0.729172 -0.684331 0
    outer loop
      vertex -0.684546 -97.771 0
      vertex -0.770513 -97.8626 1
      vertex -0.770513 -97.8626 0
    endloop
  endfacet
  facet normal 0.968567 -0.248753 0
    outer loop
      vertex -0.982286 -98.3126 1
      vertex -0.951056 -98.191 0
      vertex -0.951056 -98.191 1
    endloop
  endfacet
  facet normal 0.968567 -0.248753 0
    outer loop
      vertex -0.951056 -98.191 0
      vertex -0.982286 -98.3126 1
      vertex -0.982286 -98.3126 0
    endloop
  endfacet
  facet normal 1 -0 0
    outer loop
      vertex 0 -97.5 1
      vertex 0 -92.8707 0
      vertex 0 -92.8707 1
    endloop
  endfacet
  facet normal 1 0 0
    outer loop
      vertex 0 -92.8707 0
      vertex 0 -97.5 1
      vertex 0 -97.5 0
    endloop
  endfacet
  facet normal 0 1 -0
    outer loop
      vertex -92.8806 0 0
      vertex -97.5 0 1
      vertex -92.8806 0 1
    endloop
  endfacet
  facet normal 0 1 0
    outer loop
      vertex -97.5 0 1
      vertex -92.8806 0 0
      vertex -97.5 0 0
    endloop
  endfacet
  facet normal -0 0 1
    outer loop
      vertex -101.522 -33.7677 1
      vertex -92.8806 -36.4013 1
      vertex -92.8806 0 1
    endloop
  endfacet
  facet normal 0 0 1
    outer loop
      vertex -97.5079 -0.125333 1
      vertex -92.8806 0 1
      vertex -97.5 0 1
    endloop
  endfacet
  facet normal 0 0 1
    outer loop
      vertex -97.5314 -0.24869 1
      vertex -92.8806 0 1
      vertex -97.5079 -0.125333 1
    endloop
  endfacet
  facet normal 0 0 1
    outer loop
      vertex -97.5702 -0.368124 1
      vertex -92.8806 0 1
      vertex -97.5314 -0.24869 1
    endloop
  endfacet
  facet normal 0 0 1
    outer loop
      vertex -97.6237 -0.481753 1
      vertex -92.8806 0 1
      vertex -97.5702 -0.368124 1
    endloop
  endfacet
  facet normal 0 0 1
    outer loop
      vertex -97.691 -0.587785 1
      vertex -92.8806 0 1
      vertex -97.6237 -0.481753 1
    endloop
  endfacet
  facet normal 0 0 1
    outer loop
      vertex -97.771 -0.684546 1
      vertex -92.8806 0 1
      vertex -97.691 -0.587785 1
    endloop
  endfacet
  facet normal -0 -0 1
    outer loop
      vertex -101.365 -36.2743 1
      vertex -92.8806 -36.4013 1
      vertex -101.522 -33.7677 1
    endloop
  endfacet
  facet normal 0 0 1
    outer loop
      vertex -97.8626 -0.770513 1
      vertex -92.8806 0 1
      vertex -97.771 -0.684546 1
    endloop
  endfacet
  facet normal 0 0 1
    outer loop
      vertex -97.9642 -0.844327 1
      vertex -92.8806 0 1
      vertex -97.8626 -0.770513 1
    endloop
  endfacet
  facet normal 0 0 1
    outer loop
      vertex -98.0742 -0.904826 1
      vertex -92.8806 0 1
      vertex -97.9642 -0.844327 1
    endloop
  endfacet
  facet normal 0 0 1
    outer loop
      vertex -98.191 -0.951056 1
      vertex -92.8806 0 1
      vertex -98.0742 -0.904826 1
    endloop
  endfacet
  facet normal 0 0 1
    outer loop
      vertex -92.8806 0 1
      vertex -98.191 -0.951056 1
      vertex -101.522 -33.7677 1
    endloop
  endfacet
  facet normal 0 0 1
    outer loop
      vertex -101.522 -33.7677 1
      vertex -98.191 -0.951056 1
      vertex -98.3126 -0.982286 1
    endloop
  endfacet
  facet normal 0 0 1
    outer loop
      vertex -101.522 -33.7677 1
      vertex -98.3126 -0.982286 1
      vertex -98.4372 -0.998026 1
    endloop
  endfacet
  facet normal 0 0 1
    outer loop
      vertex -92.8806 -36.4013 1
      vertex -97.7027 -45.5234 1
      vertex -96.1017 -47.4586 1
    endloop
  endfacet
  facet normal 0 0 1
    outer loop
      vertex -92.8806 -36.4013 1
      vertex -99.0485 -43.4027 1
      vertex -97.7027 -45.5234 1
    endloop
  endfacet
  facet normal 0 0 1
    outer loop
      vertex -92.8806 -36.4013 1
      vertex -100.118 -41.1302 1
      vertex -99.0485 -43.4027 1
    endloop
  endfacet
  facet normal 0 0 1
    outer loop
      vertex -92.8806 -36.4013 1
      vertex -100.894 -38.7415 1
      vertex -100.118 -41.1302 1
    endloop
  endfacet
  facet normal 0 0 1
    outer loop
      vertex -101.522 -33.7677 1
      vertex -98.4372 -0.998026 1
      vertex -101.522 -0.998026 1
    endloop
  endfacet
  facet normal 0 0 1
    outer loop
      vertex -92.8806 -36.4013 1
      vertex -101.365 -36.2743 1
      vertex -100.894 -38.7415 1
    endloop
  endfacet
  facet normal 0 0 1
    outer loop
      vertex 0 -92.8707 1
      vertex -0.125333 -97.5079 1
      vertex 0 -97.5 1
    endloop
  endfacet
  facet normal 0 0 1
    outer loop
      vertex 0 -92.8707 1
      vertex -0.24869 -97.5314 1
      vertex -0.125333 -97.5079 1
    endloop
  endfacet
  facet normal 0 0 1
    outer loop
      vertex 0 -92.8707 1
      vertex -0.368124 -97.5702 1
      vertex -0.24869 -97.5314 1
    endloop
  endfacet
  facet normal 0 0 1
    outer loop
      vertex 0 -92.8707 1
      vertex -0.481753 -97.6237 1
      vertex -0.368124 -97.5702 1
    endloop
  endfacet
  facet normal 0 0 1
    outer loop
      vertex 0 -92.8707 1
      vertex -0.587785 -97.691 1
      vertex -0.481753 -97.6237 1
    endloop
  endfacet
  facet normal 0 0 1
    outer loop
      vertex 0 -92.8707 1
      vertex -0.684546 -97.771 1
      vertex -0.587785 -97.691 1
    endloop
  endfacet
  facet normal 0 0 1
    outer loop
      vertex 0 -92.8707 1
      vertex -0.770513 -97.8626 1
      vertex -0.684546 -97.771 1
    endloop
  endfacet
  facet normal 0 0 1
    outer loop
      vertex 0 -92.8707 1
      vertex -0.844327 -97.9642 1
      vertex -0.770513 -97.8626 1
    endloop
  endfacet
  facet normal 0 0 1
    outer loop
      vertex 0 -92.8707 1
      vertex -0.904826 -98.0742 1
      vertex -0.844327 -97.9642 1
    endloop
  endfacet
  facet normal 0 0 1
    outer loop
      vertex 0 -92.8707 1
      vertex -0.951056 -98.191 1
      vertex -0.904826 -98.0742 1
    endloop
  endfacet
  facet normal -0 0 1
    outer loop
      vertex -36.7153 -92.8707 1
      vertex -0.951056 -98.191 1
      vertex 0 -92.8707 1
    endloop
  endfacet
  facet normal 0 0 1
    outer loop
      vertex -0.998026 -98.4372 1
      vertex -35.0235 -101.483 1
      vertex -0.998026 -101.483 1
    endloop
  endfacet
  facet normal 0 0 1
    outer loop
      vertex -0.982286 -98.3126 1
      vertex -35.0235 -101.483 1
      vertex -0.998026 -98.4372 1
    endloop
  endfacet
  facet normal 0 0 1
    outer loop
      vertex -0.951056 -98.191 1
      vertex -36.7153 -92.8707 1
      vertex -0.982286 -98.3126 1
    endloop
  endfacet
  facet normal 0 0 1
    outer loop
      vertex -0.982286 -98.3126 1
      vertex -36.7153 -92.8707 1
      vertex -35.0235 -101.483 1
    endloop
  endfacet
  facet normal 0 0 1
    outer loop
      vertex -37.5153 -101.168 1
      vertex -36.7153 -92.8707 1
      vertex -37.3382 -92.792 1
    endloop
  endfacet
  facet normal 0 0 1
    outer loop
      vertex -36.7153 -92.8707 1
      vertex -37.5153 -101.168 1
      vertex -35.0235 -101.483 1
    endloop
  endfacet
  facet normal 0 0 1
    outer loop
      vertex -39.948 -100.543 1
      vertex -37.3382 -92.792 1
      vertex -37.9464 -92.6358 1
    endloop
  endfacet
  facet normal 0 0 1
    outer loop
      vertex -42.2833 -99.6189 1
      vertex -37.9464 -92.6358 1
      vertex -38.5302 -92.4047 1
    endloop
  endfacet
  facet normal 0 0 1
    outer loop
      vertex -42.2833 -99.6189 1
      vertex -38.5302 -92.4047 1
      vertex -39.0805 -92.1022 1
    endloop
  endfacet
  facet normal 0 0 1
    outer loop
      vertex -44.4842 -98.4089 1
      vertex -39.0805 -92.1022 1
      vertex -39.5884 -91.7331 1
    endloop
  endfacet
  facet normal 0 0 1
    outer loop
      vertex -37.3382 -92.792 1
      vertex -39.948 -100.543 1
      vertex -37.5153 -101.168 1
    endloop
  endfacet
  facet normal 0 0 1
    outer loop
      vertex -44.4842 -98.4089 1
      vertex -39.5884 -91.7331 1
      vertex -40.0462 -91.3033 1
    endloop
  endfacet
  facet normal 0 0 1
    outer loop
      vertex -37.9464 -92.6358 1
      vertex -42.2833 -99.6189 1
      vertex -39.948 -100.543 1
    endloop
  endfacet
  facet normal 0 0 1
    outer loop
      vertex -39.0805 -92.1022 1
      vertex -44.4842 -98.4089 1
      vertex -42.2833 -99.6189 1
    endloop
  endfacet
  facet normal 0 0 1
    outer loop
      vertex -40.0462 -91.3033 1
      vertex -46.5161 -96.9326 1
      vertex -44.4842 -98.4089 1
    endloop
  endfacet
  facet normal 0 0 1
    outer loop
      vertex -40.0462 -91.3033 1
      vertex -48.347 -95.2133 1
      vertex -46.5161 -96.9326 1
    endloop
  endfacet
  facet normal -0 0 1
    outer loop
      vertex -68.6545 -69.7441 1
      vertex -40.0462 -91.3033 1
      vertex -68.6505 -69.6186 1
    endloop
  endfacet
  facet normal 0 0 1
    outer loop
      vertex -40.0462 -91.3033 1
      vertex -68.6623 -69.4936 1
      vertex -68.6505 -69.6186 1
    endloop
  endfacet
  facet normal 0 0 1
    outer loop
      vertex -40.0462 -91.3033 1
      vertex -68.6897 -69.371 1
      vertex -68.6623 -69.4936 1
    endloop
  endfacet
  facet normal 0 0 1
    outer loop
      vertex -40.0462 -91.3033 1
      vertex -68.7323 -69.2529 1
      vertex -68.6897 -69.371 1
    endloop
  endfacet
  facet normal 0 0 1
    outer loop
      vertex -40.0462 -91.3033 1
      vertex -68.7893 -69.141 1
      vertex -68.7323 -69.2529 1
    endloop
  endfacet
  facet normal 0 0 1
    outer loop
      vertex -40.0462 -91.3033 1
      vertex -68.8599 -69.0371 1
      vertex -68.7893 -69.141 1
    endloop
  endfacet
  facet normal 0 0 1
    outer loop
      vertex -40.0462 -91.3033 1
      vertex -68.9429 -68.9429 1
      vertex -68.8599 -69.0371 1
    endloop
  endfacet
  facet normal 0 0 1
    outer loop
      vertex -91.5254 -39.8241 1
      vertex -68.9429 -68.9429 1
      vertex -40.0462 -91.3033 1
    endloop
  endfacet
  facet normal 0 0 1
    outer loop
      vertex -68.9429 -68.9429 1
      vertex -91.5254 -39.8241 1
      vertex -69.0371 -68.8599 1
    endloop
  endfacet
  facet normal 0 0 1
    outer loop
      vertex -91.5254 -39.8241 1
      vertex -69.141 -68.7893 1
      vertex -69.0371 -68.8599 1
    endloop
  endfacet
  facet normal 0 0 1
    outer loop
      vertex -91.5254 -39.8241 1
      vertex -69.2529 -68.7323 1
      vertex -69.141 -68.7893 1
    endloop
  endfacet
  facet normal 0 0 1
    outer loop
      vertex -91.5254 -39.8241 1
      vertex -69.371 -68.6897 1
      vertex -69.2529 -68.7323 1
    endloop
  endfacet
  facet normal 0 0 1
    outer loop
      vertex -91.5254 -39.8241 1
      vertex -69.4936 -68.6623 1
      vertex -69.371 -68.6897 1
    endloop
  endfacet
  facet normal 0 0 1
    outer loop
      vertex -91.5254 -39.8241 1
      vertex -69.6186 -68.6505 1
      vertex -69.4936 -68.6623 1
    endloop
  endfacet
  facet normal 0 0 1
    outer loop
      vertex -91.5254 -39.8241 1
      vertex -69.7441 -68.6545 1
      vertex -69.6186 -68.6505 1
    endloop
  endfacet
  facet normal 0 0 1
    outer loop
      vertex -91.5254 -39.8241 1
      vertex -69.8682 -68.6741 1
      vertex -69.7441 -68.6545 1
    endloop
  endfacet
  facet normal 0 0 1
    outer loop
      vertex -91.5254 -39.8241 1
      vertex -69.9888 -68.7091 1
      vertex -69.8682 -68.6741 1
    endloop
  endfacet
  facet normal 0 0 1
    outer loop
      vertex -91.5254 -39.8241 1
      vertex -70.104 -68.759 1
      vertex -69.9888 -68.7091 1
    endloop
  endfacet
  facet normal -0 0 1
    outer loop
      vertex -96.1017 -47.4586 1
      vertex -70.104 -68.759 1
      vertex -91.5254 -39.8241 1
    endloop
  endfacet
  facet normal 0 0 1
    outer loop
      vertex -70.104 -68.759 1
      vertex -96.1017 -47.4586 1
      vertex -70.2121 -68.8229 1
    endloop
  endfacet
  facet normal 0 0 1
    outer loop
      vertex -70.2121 -68.8229 1
      vertex -96.1017 -47.4586 1
      vertex -70.3113 -68.8999 1
    endloop
  endfacet
  facet normal 0 0 1
    outer loop
      vertex -96.1017 -47.4586 1
      vertex -91.5254 -39.8241 1
      vertex -91.9256 -39.3402 1
    endloop
  endfacet
  facet normal 0 0 1
    outer loop
      vertex -96.1017 -47.4586 1
      vertex -91.9256 -39.3402 1
      vertex -92.2621 -38.8101 1
    endloop
  endfacet
  facet normal 0 0 1
    outer loop
      vertex -70.3113 -68.8999 1
      vertex -96.1017 -47.4586 1
      vertex -72.4859 -71.0745 1
    endloop
  endfacet
  facet normal 0 0 1
    outer loop
      vertex -92.5294 -38.2419 1
      vertex -96.1017 -47.4586 1
      vertex -92.2621 -38.8101 1
    endloop
  endfacet
  facet normal 0 0 1
    outer loop
      vertex -92.7235 -37.6448 1
      vertex -96.1017 -47.4586 1
      vertex -92.5294 -38.2419 1
    endloop
  endfacet
  facet normal 0 0 1
    outer loop
      vertex -92.8411 -37.028 1
      vertex -96.1017 -47.4586 1
      vertex -92.7235 -37.6448 1
    endloop
  endfacet
  facet normal 0 0 1
    outer loop
      vertex -96.1017 -47.4586 1
      vertex -92.8411 -37.028 1
      vertex -92.8806 -36.4013 1
    endloop
  endfacet
  facet normal -0 0 1
    outer loop
      vertex -68.6741 -69.8682 1
      vertex -40.0462 -91.3033 1
      vertex -68.6545 -69.7441 1
    endloop
  endfacet
  facet normal -0 0 1
    outer loop
      vertex -68.7091 -69.9888 1
      vertex -40.0462 -91.3033 1
      vertex -68.6741 -69.8682 1
    endloop
  endfacet
  facet normal 0 0 1
    outer loop
      vertex -40.0462 -91.3033 1
      vertex -68.7091 -69.9888 1
      vertex -48.347 -95.2133 1
    endloop
  endfacet
  facet normal -0 0 1
    outer loop
      vertex -68.759 -70.104 1
      vertex -48.347 -95.2133 1
      vertex -68.7091 -69.9888 1
    endloop
  endfacet
  facet normal -0 0 1
    outer loop
      vertex -68.8229 -70.2121 1
      vertex -48.347 -95.2133 1
      vertex -68.759 -70.104 1
    endloop
  endfacet
  facet normal -0 0 1
    outer loop
      vertex -68.8999 -70.3113 1
      vertex -48.347 -95.2133 1
      vertex -68.8229 -70.2121 1
    endloop
  endfacet
  facet normal 0 0 1
    outer loop
      vertex -48.347 -95.2133 1
      vertex -68.8999 -70.3113 1
      vertex -71.0745 -72.4859 1
    endloop
  endfacet
endsolid OpenSCAD_Model
