solid OpenSCAD_Model
  facet normal -1 0 0
    outer loop
      vertex -104.022 -34.8032 0
      vertex -104.022 -0.998026 1
      vertex -104.022 -0.998026 0
    endloop
  endfacet
  facet normal -1 -0 0
    outer loop
      vertex -104.022 -0.998026 1
      vertex -104.022 -34.8032 0
      vertex -104.022 -34.8032 1
    endloop
  endfacet
  facet normal 0 -1 0
    outer loop
      vertex -36.059 -103.983 0
      vertex -0.998026 -103.983 1
      vertex -36.059 -103.983 1
    endloop
  endfacet
  facet normal 0 -1 -0
    outer loop
      vertex -0.998026 -103.983 1
      vertex -36.059 -103.983 0
      vertex -0.998026 -103.983 0
    endloop
  endfacet
  facet normal -0.707107 -0.707107 0
    outer loop
      vertex -74.2536 -72.8422 0
      vertex -98.6017 -48.4941 1
      vertex -98.6017 -48.4941 0
    endloop
  endfacet
  facet normal -0.707107 -0.707107 0
    outer loop
      vertex -98.6017 -48.4941 1
      vertex -74.2536 -72.8422 0
      vertex -74.2536 -72.8422 1
    endloop
  endfacet
  facet normal -0.707108 -0.707105 0
    outer loop
      vertex -49.3826 -97.7133 0
      vertex -72.8422 -74.2536 1
      vertex -72.8422 -74.2536 0
    endloop
  endfacet
  facet normal -0.707108 -0.707105 0
    outer loop
      vertex -72.8422 -74.2536 1
      vertex -49.3826 -97.7133 0
      vertex -49.3826 -97.7133 1
    endloop
  endfacet
  facet normal -0.587802 -0.809005 0
    outer loop
      vertex -47.5517 -99.4326 0
      vertex -45.5197 -100.909 1
      vertex -47.5517 -99.4326 1
    endloop
  endfacet
  facet normal -0.587802 -0.809005 -0
    outer loop
      vertex -45.5197 -100.909 1
      vertex -47.5517 -99.4326 0
      vertex -45.5197 -100.909 0
    endloop
  endfacet
  facet normal -0.125416 -0.992104 0
    outer loop
      vertex -38.5508 -103.668 0
      vertex -36.059 -103.983 1
      vertex -38.5508 -103.668 1
    endloop
  endfacet
  facet normal -0.125416 -0.992104 -0
    outer loop
      vertex -36.059 -103.983 1
      vertex -38.5508 -103.668 0
      vertex -36.059 -103.983 0
    endloop
  endfacet
  facet normal -0.367914 -0.92986 0
    outer loop
      vertex -43.3188 -102.119 0
      vertex -40.9835 -103.043 1
      vertex -43.3188 -102.119 1
    endloop
  endfacet
  facet normal -0.367914 -0.92986 -0
    outer loop
      vertex -40.9835 -103.043 1
      vertex -43.3188 -102.119 0
      vertex -40.9835 -103.043 0
    endloop
  endfacet
  facet normal -0.248835 -0.968546 0
    outer loop
      vertex -40.9835 -103.043 0
      vertex -38.5508 -103.668 1
      vertex -40.9835 -103.043 1
    endloop
  endfacet
  facet normal -0.248835 -0.968546 -0
    outer loop
      vertex -38.5508 -103.668 1
      vertex -40.9835 -103.043 0
      vertex -38.5508 -103.668 0
    endloop
  endfacet
  facet normal -0.684541 -0.728974 0
    outer loop
      vertex -49.3826 -97.7133 0
      vertex -47.5517 -99.4326 1
      vertex -49.3826 -97.7133 1
    endloop
  endfacet
  facet normal -0.684541 -0.728974 -0
    outer loop
      vertex -47.5517 -99.4326 1
      vertex -49.3826 -97.7133 0
      vertex -47.5517 -99.4326 0
    endloop
  endfacet
  facet normal -0.904736 -0.425973 0
    outer loop
      vertex -101.548 -44.4383 0
      vertex -102.618 -42.1657 1
      vertex -102.618 -42.1657 0
    endloop
  endfacet
  facet normal -0.904736 -0.425973 0
    outer loop
      vertex -102.618 -42.1657 1
      vertex -101.548 -44.4383 0
      vertex -101.548 -44.4383 1
    endloop
  endfacet
  facet normal -0.844467 -0.535607 0
    outer loop
      vertex -100.203 -46.5589 0
      vertex -101.548 -44.4383 1
      vertex -101.548 -44.4383 0
    endloop
  endfacet
  facet normal -0.844467 -0.535607 0
    outer loop
      vertex -101.548 -44.4383 1
      vertex -100.203 -46.5589 0
      vertex -100.203 -46.5589 1
    endloop
  endfacet
  facet normal 0 0 -1
    outer loop
      vertex -0.998026 -103.983 0
      vertex -36.059 -103.983 0
      vertex -0.998026 -100.937 0
    endloop
  endfacet
  facet normal 0 0 -1
    outer loop
      vertex -0.125333 -100.008 0
      vertex 0 -92.8707 0
      vertex 0 -100 0
    endloop
  endfacet
  facet normal 0 0 -1
    outer loop
      vertex -0.24869 -100.031 0
      vertex 0 -92.8707 0
      vertex -0.125333 -100.008 0
    endloop
  endfacet
  facet normal 0 0 -1
    outer loop
      vertex -0.368124 -100.07 0
      vertex 0 -92.8707 0
      vertex -0.24869 -100.031 0
    endloop
  endfacet
  facet normal 0 0 -1
    outer loop
      vertex -0.481753 -100.124 0
      vertex 0 -92.8707 0
      vertex -0.368124 -100.07 0
    endloop
  endfacet
  facet normal 0 0 -1
    outer loop
      vertex -0.587785 -100.191 0
      vertex 0 -92.8707 0
      vertex -0.481753 -100.124 0
    endloop
  endfacet
  facet normal 0 0 -1
    outer loop
      vertex -0.684546 -100.271 0
      vertex 0 -92.8707 0
      vertex -0.587785 -100.191 0
    endloop
  endfacet
  facet normal 0 0 -1
    outer loop
      vertex -0.770513 -100.363 0
      vertex 0 -92.8707 0
      vertex -0.684546 -100.271 0
    endloop
  endfacet
  facet normal 0 0 -1
    outer loop
      vertex -0.844327 -100.464 0
      vertex 0 -92.8707 0
      vertex -0.770513 -100.363 0
    endloop
  endfacet
  facet normal 0 0 -1
    outer loop
      vertex -0.904826 -100.574 0
      vertex 0 -92.8707 0
      vertex -0.844327 -100.464 0
    endloop
  endfacet
  facet normal 0 0 -1
    outer loop
      vertex -0.951056 -100.691 0
      vertex 0 -92.8707 0
      vertex -0.904826 -100.574 0
    endloop
  endfacet
  facet normal 0 0 -1
    outer loop
      vertex -36.7153 -92.8707 0
      vertex -0.951056 -100.691 0
      vertex -0.982286 -100.813 0
    endloop
  endfacet
  facet normal 0 0 -1
    outer loop
      vertex -36.059 -103.983 0
      vertex -0.982286 -100.813 0
      vertex -0.998026 -100.937 0
    endloop
  endfacet
  facet normal -0 0 -1
    outer loop
      vertex -0.982286 -100.813 0
      vertex -36.059 -103.983 0
      vertex -36.7153 -92.8707 0
    endloop
  endfacet
  facet normal 0 0 -1
    outer loop
      vertex -0.951056 -100.691 0
      vertex -36.7153 -92.8707 0
      vertex 0 -92.8707 0
    endloop
  endfacet
  facet normal 0 0 -1
    outer loop
      vertex -38.5508 -103.668 0
      vertex -36.7153 -92.8707 0
      vertex -36.059 -103.983 0
    endloop
  endfacet
  facet normal -0 0 -1
    outer loop
      vertex -36.7153 -92.8707 0
      vertex -38.5508 -103.668 0
      vertex -37.3382 -92.792 0
    endloop
  endfacet
  facet normal 0 0 -1
    outer loop
      vertex -40.9835 -103.043 0
      vertex -37.3382 -92.792 0
      vertex -38.5508 -103.668 0
    endloop
  endfacet
  facet normal -0 0 -1
    outer loop
      vertex -37.3382 -92.792 0
      vertex -40.9835 -103.043 0
      vertex -37.9464 -92.6358 0
    endloop
  endfacet
  facet normal 0 0 -1
    outer loop
      vertex -43.3188 -102.119 0
      vertex -37.9464 -92.6358 0
      vertex -40.9835 -103.043 0
    endloop
  endfacet
  facet normal -0 0 -1
    outer loop
      vertex -37.9464 -92.6358 0
      vertex -43.3188 -102.119 0
      vertex -38.5302 -92.4047 0
    endloop
  endfacet
  facet normal -0 0 -1
    outer loop
      vertex -38.5302 -92.4047 0
      vertex -43.3188 -102.119 0
      vertex -39.0805 -92.1022 0
    endloop
  endfacet
  facet normal 0 0 -1
    outer loop
      vertex -45.5197 -100.909 0
      vertex -39.0805 -92.1022 0
      vertex -43.3188 -102.119 0
    endloop
  endfacet
  facet normal -0 0 -1
    outer loop
      vertex -39.0805 -92.1022 0
      vertex -45.5197 -100.909 0
      vertex -39.5884 -91.7331 0
    endloop
  endfacet
  facet normal 0 0 -1
    outer loop
      vertex -47.5517 -99.4326 0
      vertex -39.5884 -91.7331 0
      vertex -45.5197 -100.909 0
    endloop
  endfacet
  facet normal -0 0 -1
    outer loop
      vertex -39.5884 -91.7331 0
      vertex -47.5517 -99.4326 0
      vertex -40.0462 -91.3033 0
    endloop
  endfacet
  facet normal 0 0 -1
    outer loop
      vertex -49.3826 -97.7133 0
      vertex -40.0462 -91.3033 0
      vertex -47.5517 -99.4326 0
    endloop
  endfacet
  facet normal 0 0 -1
    outer loop
      vertex -70.5268 -71.8718 0
      vertex -40.0462 -91.3033 0
      vertex -49.3826 -97.7133 0
    endloop
  endfacet
  facet normal 0 0 -1
    outer loop
      vertex -70.4301 -71.2614 0
      vertex -40.0462 -91.3033 0
      vertex -70.4183 -71.3864 0
    endloop
  endfacet
  facet normal 0 0 -1
    outer loop
      vertex -70.4575 -71.1388 0
      vertex -40.0462 -91.3033 0
      vertex -70.4301 -71.2614 0
    endloop
  endfacet
  facet normal 0 0 -1
    outer loop
      vertex -70.5 -71.0206 0
      vertex -40.0462 -91.3033 0
      vertex -70.4575 -71.1388 0
    endloop
  endfacet
  facet normal 0 0 -1
    outer loop
      vertex -70.557 -70.9087 0
      vertex -40.0462 -91.3033 0
      vertex -70.5 -71.0206 0
    endloop
  endfacet
  facet normal 0 0 -1
    outer loop
      vertex -70.6276 -70.8049 0
      vertex -40.0462 -91.3033 0
      vertex -70.557 -70.9087 0
    endloop
  endfacet
  facet normal 0 0 -1
    outer loop
      vertex -70.7107 -70.7107 0
      vertex -40.0462 -91.3033 0
      vertex -70.6276 -70.8049 0
    endloop
  endfacet
  facet normal 0 0 -1
    outer loop
      vertex -91.5254 -39.8241 0
      vertex -70.7107 -70.7107 0
      vertex -70.8049 -70.6276 0
    endloop
  endfacet
  facet normal 0 0 -1
    outer loop
      vertex -91.5254 -39.8241 0
      vertex -70.8049 -70.6276 0
      vertex -70.9087 -70.557 0
    endloop
  endfacet
  facet normal 0 0 -1
    outer loop
      vertex -70.7107 -70.7107 0
      vertex -91.5254 -39.8241 0
      vertex -40.0462 -91.3033 0
    endloop
  endfacet
  facet normal 0 0 -1
    outer loop
      vertex -71.0206 -70.5 0
      vertex -91.5254 -39.8241 0
      vertex -70.9087 -70.557 0
    endloop
  endfacet
  facet normal 0 0 -1
    outer loop
      vertex -71.1388 -70.4575 0
      vertex -91.5254 -39.8241 0
      vertex -71.0206 -70.5 0
    endloop
  endfacet
  facet normal 0 0 -1
    outer loop
      vertex -71.2614 -70.4301 0
      vertex -91.5254 -39.8241 0
      vertex -71.1388 -70.4575 0
    endloop
  endfacet
  facet normal 0 0 -1
    outer loop
      vertex -71.3864 -70.4183 0
      vertex -91.5254 -39.8241 0
      vertex -71.2614 -70.4301 0
    endloop
  endfacet
  facet normal 0 0 -1
    outer loop
      vertex -71.5119 -70.4222 0
      vertex -91.5254 -39.8241 0
      vertex -71.3864 -70.4183 0
    endloop
  endfacet
  facet normal 0 0 -1
    outer loop
      vertex -71.6359 -70.4419 0
      vertex -91.5254 -39.8241 0
      vertex -71.5119 -70.4222 0
    endloop
  endfacet
  facet normal 0 0 -1
    outer loop
      vertex -71.7565 -70.4769 0
      vertex -91.5254 -39.8241 0
      vertex -71.6359 -70.4419 0
    endloop
  endfacet
  facet normal 0 0 -1
    outer loop
      vertex -71.8718 -70.5268 0
      vertex -91.5254 -39.8241 0
      vertex -71.7565 -70.4769 0
    endloop
  endfacet
  facet normal 0 0 -1
    outer loop
      vertex -71.9799 -70.5907 0
      vertex -91.5254 -39.8241 0
      vertex -71.8718 -70.5268 0
    endloop
  endfacet
  facet normal 0 0 -1
    outer loop
      vertex -98.6017 -48.4941 0
      vertex -71.9799 -70.5907 0
      vertex -72.0791 -70.6677 0
    endloop
  endfacet
  facet normal 0 0 -1
    outer loop
      vertex -98.6017 -48.4941 0
      vertex -72.0791 -70.6677 0
      vertex -74.2536 -72.8422 0
    endloop
  endfacet
  facet normal 0 0 -1
    outer loop
      vertex -71.9799 -70.5907 0
      vertex -98.6017 -48.4941 0
      vertex -91.5254 -39.8241 0
    endloop
  endfacet
  facet normal 0 0 -1
    outer loop
      vertex -100.203 -46.5589 0
      vertex -91.5254 -39.8241 0
      vertex -98.6017 -48.4941 0
    endloop
  endfacet
  facet normal -0 0 -1
    outer loop
      vertex -91.5254 -39.8241 0
      vertex -100.203 -46.5589 0
      vertex -91.9256 -39.3402 0
    endloop
  endfacet
  facet normal 0 0 -1
    outer loop
      vertex -101.548 -44.4383 0
      vertex -91.9256 -39.3402 0
      vertex -100.203 -46.5589 0
    endloop
  endfacet
  facet normal -0 0 -1
    outer loop
      vertex -91.9256 -39.3402 0
      vertex -101.548 -44.4383 0
      vertex -92.2621 -38.8101 0
    endloop
  endfacet
  facet normal 0 0 -1
    outer loop
      vertex -102.618 -42.1657 0
      vertex -92.2621 -38.8101 0
      vertex -101.548 -44.4383 0
    endloop
  endfacet
  facet normal -0 0 -1
    outer loop
      vertex -92.2621 -38.8101 0
      vertex -102.618 -42.1657 0
      vertex -92.5294 -38.2419 0
    endloop
  endfacet
  facet normal -0 0 -1
    outer loop
      vertex -92.5294 -38.2419 0
      vertex -102.618 -42.1657 0
      vertex -92.7235 -37.6448 0
    endloop
  endfacet
  facet normal 0 -0 -1
    outer loop
      vertex -100.691 -0.951056 0
      vertex -92.8806 -36.4013 0
      vertex -104.022 -34.8032 0
    endloop
  endfacet
  facet normal -0 0 -1
    outer loop
      vertex -92.8806 0 0
      vertex -100.008 -0.125333 0
      vertex -100 0 0
    endloop
  endfacet
  facet normal 0 0 -1
    outer loop
      vertex -92.8806 0 0
      vertex -100.031 -0.24869 0
      vertex -100.008 -0.125333 0
    endloop
  endfacet
  facet normal 0 0 -1
    outer loop
      vertex -92.8806 0 0
      vertex -100.07 -0.368124 0
      vertex -100.031 -0.24869 0
    endloop
  endfacet
  facet normal 0 0 -1
    outer loop
      vertex -92.8806 0 0
      vertex -100.124 -0.481753 0
      vertex -100.07 -0.368124 0
    endloop
  endfacet
  facet normal 0 0 -1
    outer loop
      vertex -92.8806 -36.4013 0
      vertex -100.691 -0.951056 0
      vertex -92.8806 0 0
    endloop
  endfacet
  facet normal 0 0 -1
    outer loop
      vertex -103.394 -39.777 0
      vertex -92.7235 -37.6448 0
      vertex -102.618 -42.1657 0
    endloop
  endfacet
  facet normal 0 0 -1
    outer loop
      vertex -92.8806 0 0
      vertex -100.191 -0.587785 0
      vertex -100.124 -0.481753 0
    endloop
  endfacet
  facet normal 0 0 -1
    outer loop
      vertex -92.8806 0 0
      vertex -100.271 -0.684546 0
      vertex -100.191 -0.587785 0
    endloop
  endfacet
  facet normal 0 0 -1
    outer loop
      vertex -92.8806 0 0
      vertex -100.363 -0.770513 0
      vertex -100.271 -0.684546 0
    endloop
  endfacet
  facet normal 0 0 -1
    outer loop
      vertex -92.8806 0 0
      vertex -100.464 -0.844327 0
      vertex -100.363 -0.770513 0
    endloop
  endfacet
  facet normal 0 0 -1
    outer loop
      vertex -92.8806 0 0
      vertex -100.574 -0.904826 0
      vertex -100.464 -0.844327 0
    endloop
  endfacet
  facet normal 0 0 -1
    outer loop
      vertex -92.8806 0 0
      vertex -100.691 -0.951056 0
      vertex -100.574 -0.904826 0
    endloop
  endfacet
  facet normal 0 0 -1
    outer loop
      vertex -100.691 -0.951056 0
      vertex -104.022 -34.8032 0
      vertex -100.813 -0.982286 0
    endloop
  endfacet
  facet normal -0 0 -1
    outer loop
      vertex -92.7235 -37.6448 0
      vertex -103.394 -39.777 0
      vertex -92.8411 -37.028 0
    endloop
  endfacet
  facet normal 0 0 -1
    outer loop
      vertex -103.865 -37.3099 0
      vertex -92.8411 -37.028 0
      vertex -103.394 -39.777 0
    endloop
  endfacet
  facet normal -0 0 -1
    outer loop
      vertex -92.8411 -37.028 0
      vertex -103.865 -37.3099 0
      vertex -92.8806 -36.4013 0
    endloop
  endfacet
  facet normal -0 0 -1
    outer loop
      vertex -92.8806 -36.4013 0
      vertex -103.865 -37.3099 0
      vertex -104.022 -34.8032 0
    endloop
  endfacet
  facet normal 0 0 -1
    outer loop
      vertex -100.813 -0.982286 0
      vertex -104.022 -34.8032 0
      vertex -100.937 -0.998026 0
    endloop
  endfacet
  facet normal -0 0 -1
    outer loop
      vertex -100.937 -0.998026 0
      vertex -104.022 -34.8032 0
      vertex -104.022 -0.998026 0
    endloop
  endfacet
  facet normal 0 0 -1
    outer loop
      vertex -40.0462 -91.3033 0
      vertex -70.4222 -71.5119 0
      vertex -70.4183 -71.3864 0
    endloop
  endfacet
  facet normal 0 0 -1
    outer loop
      vertex -40.0462 -91.3033 0
      vertex -70.4419 -71.6359 0
      vertex -70.4222 -71.5119 0
    endloop
  endfacet
  facet normal 0 0 -1
    outer loop
      vertex -40.0462 -91.3033 0
      vertex -70.4769 -71.7565 0
      vertex -70.4419 -71.6359 0
    endloop
  endfacet
  facet normal 0 0 -1
    outer loop
      vertex -40.0462 -91.3033 0
      vertex -70.5268 -71.8718 0
      vertex -70.4769 -71.7565 0
    endloop
  endfacet
  facet normal 0 0 -1
    outer loop
      vertex -49.3826 -97.7133 0
      vertex -70.5907 -71.9799 0
      vertex -70.5268 -71.8718 0
    endloop
  endfacet
  facet normal 0 0 -1
    outer loop
      vertex -49.3826 -97.7133 0
      vertex -70.6677 -72.0791 0
      vertex -70.5907 -71.9799 0
    endloop
  endfacet
  facet normal 0 -0 -1
    outer loop
      vertex -70.6677 -72.0791 0
      vertex -49.3826 -97.7133 0
      vertex -72.8422 -74.2536 0
    endloop
  endfacet
  facet normal -0.481767 -0.876299 0
    outer loop
      vertex -45.5197 -100.909 0
      vertex -43.3188 -102.119 1
      vertex -45.5197 -100.909 1
    endloop
  endfacet
  facet normal -0.481767 -0.876299 -0
    outer loop
      vertex -43.3188 -102.119 1
      vertex -45.5197 -100.909 0
      vertex -43.3188 -102.119 0
    endloop
  endfacet
  facet normal -0.770442 -0.63751 0
    outer loop
      vertex -98.6017 -48.4941 0
      vertex -100.203 -46.5589 1
      vertex -100.203 -46.5589 0
    endloop
  endfacet
  facet normal -0.770442 -0.63751 0
    outer loop
      vertex -100.203 -46.5589 1
      vertex -98.6017 -48.4941 0
      vertex -98.6017 -48.4941 1
    endloop
  endfacet
  facet normal -0.951072 -0.308968 0
    outer loop
      vertex -102.618 -42.1657 0
      vertex -103.394 -39.777 1
      vertex -103.394 -39.777 0
    endloop
  endfacet
  facet normal -0.951072 -0.308968 0
    outer loop
      vertex -103.394 -39.777 1
      vertex -102.618 -42.1657 0
      vertex -102.618 -42.1657 1
    endloop
  endfacet
  facet normal -0.998044 -0.0625097 0
    outer loop
      vertex -103.865 -37.3099 0
      vertex -104.022 -34.8032 1
      vertex -104.022 -34.8032 0
    endloop
  endfacet
  facet normal -0.998044 -0.0625097 0
    outer loop
      vertex -104.022 -34.8032 1
      vertex -103.865 -37.3099 0
      vertex -103.865 -37.3099 1
    endloop
  endfacet
  facet normal -0.98226 -0.187526 0
    outer loop
      vertex -103.394 -39.777 0
      vertex -103.865 -37.3099 1
      vertex -103.865 -37.3099 0
    endloop
  endfacet
  facet normal -0.98226 -0.187526 0
    outer loop
      vertex -103.865 -37.3099 1
      vertex -103.394 -39.777 0
      vertex -103.394 -39.777 1
    endloop
  endfacet
  facet normal 1 -0 0
    outer loop
      vertex -92.8806 -36.4013 1
      vertex -92.8806 0 0
      vertex -92.8806 0 1
    endloop
  endfacet
  facet normal 1 0 0
    outer loop
      vertex -92.8806 0 0
      vertex -92.8806 -36.4013 1
      vertex -92.8806 -36.4013 0
    endloop
  endfacet
  facet normal 0 1 -0
    outer loop
      vertex 0 -92.8707 0
      vertex -36.7153 -92.8707 1
      vertex 0 -92.8707 1
    endloop
  endfacet
  facet normal 0 1 0
    outer loop
      vertex -36.7153 -92.8707 1
      vertex 0 -92.8707 0
      vertex -36.7153 -92.8707 0
    endloop
  endfacet
  facet normal 0.707107 0.707107 0
    outer loop
      vertex -40.0462 -91.3033 1
      vertex -91.5254 -39.8241 0
      vertex -91.5254 -39.8241 1
    endloop
  endfacet
  facet normal 0.707107 0.707107 0
    outer loop
      vertex -91.5254 -39.8241 0
      vertex -40.0462 -91.3033 1
      vertex -40.0462 -91.3033 0
    endloop
  endfacet
  facet normal 0.481717 0.876327 -0
    outer loop
      vertex -38.5302 -92.4047 0
      vertex -39.0805 -92.1022 1
      vertex -38.5302 -92.4047 1
    endloop
  endfacet
  facet normal 0.481717 0.876327 0
    outer loop
      vertex -39.0805 -92.1022 1
      vertex -38.5302 -92.4047 0
      vertex -39.0805 -92.1022 0
    endloop
  endfacet
  facet normal 0.125348 0.992113 -0
    outer loop
      vertex -36.7153 -92.8707 0
      vertex -37.3382 -92.792 1
      vertex -36.7153 -92.8707 1
    endloop
  endfacet
  facet normal 0.125348 0.992113 0
    outer loop
      vertex -37.3382 -92.792 1
      vertex -36.7153 -92.8707 0
      vertex -37.3382 -92.792 0
    endloop
  endfacet
  facet normal 0.368066 0.9298 -0
    outer loop
      vertex -37.9464 -92.6358 0
      vertex -38.5302 -92.4047 1
      vertex -37.9464 -92.6358 1
    endloop
  endfacet
  facet normal 0.368066 0.9298 0
    outer loop
      vertex -38.5302 -92.4047 1
      vertex -37.9464 -92.6358 0
      vertex -38.5302 -92.4047 0
    endloop
  endfacet
  facet normal 0.248751 0.968568 -0
    outer loop
      vertex -37.3382 -92.792 0
      vertex -37.9464 -92.6358 1
      vertex -37.3382 -92.792 1
    endloop
  endfacet
  facet normal 0.248751 0.968568 0
    outer loop
      vertex -37.9464 -92.6358 1
      vertex -37.3382 -92.792 0
      vertex -37.9464 -92.6358 0
    endloop
  endfacet
  facet normal 0.904873 0.425682 0
    outer loop
      vertex -92.2621 -38.8101 1
      vertex -92.5294 -38.2419 0
      vertex -92.5294 -38.2419 1
    endloop
  endfacet
  facet normal 0.904873 0.425682 0
    outer loop
      vertex -92.5294 -38.2419 0
      vertex -92.2621 -38.8101 1
      vertex -92.2621 -38.8101 0
    endloop
  endfacet
  facet normal 0.844264 0.535927 0
    outer loop
      vertex -91.9256 -39.3402 1
      vertex -92.2621 -38.8101 0
      vertex -92.2621 -38.8101 1
    endloop
  endfacet
  facet normal 0.844264 0.535927 0
    outer loop
      vertex -92.2621 -38.8101 0
      vertex -91.9256 -39.3402 1
      vertex -91.9256 -39.3402 0
    endloop
  endfacet
  facet normal 0.68446 0.72905 -0
    outer loop
      vertex -39.5884 -91.7331 0
      vertex -40.0462 -91.3033 1
      vertex -39.5884 -91.7331 1
    endloop
  endfacet
  facet normal 0.68446 0.72905 0
    outer loop
      vertex -40.0462 -91.3033 1
      vertex -39.5884 -91.7331 0
      vertex -40.0462 -91.3033 0
    endloop
  endfacet
  facet normal 0.770605 0.637313 0
    outer loop
      vertex -91.5254 -39.8241 1
      vertex -91.9256 -39.3402 0
      vertex -91.9256 -39.3402 1
    endloop
  endfacet
  facet normal 0.770605 0.637313 0
    outer loop
      vertex -91.9256 -39.3402 0
      vertex -91.5254 -39.8241 1
      vertex -91.5254 -39.8241 0
    endloop
  endfacet
  facet normal 0.951014 0.309147 0
    outer loop
      vertex -92.5294 -38.2419 1
      vertex -92.7235 -37.6448 0
      vertex -92.7235 -37.6448 1
    endloop
  endfacet
  facet normal 0.951014 0.309147 0
    outer loop
      vertex -92.7235 -37.6448 0
      vertex -92.5294 -38.2419 1
      vertex -92.5294 -38.2419 0
    endloop
  endfacet
  facet normal 0.99802 0.0629037 0
    outer loop
      vertex -92.8411 -37.028 1
      vertex -92.8806 -36.4013 0
      vertex -92.8806 -36.4013 1
    endloop
  endfacet
  facet normal 0.99802 0.0629037 0
    outer loop
      vertex -92.8806 -36.4013 0
      vertex -92.8411 -37.028 1
      vertex -92.8411 -37.028 0
    endloop
  endfacet
  facet normal 0.587878 0.80895 -0
    outer loop
      vertex -39.0805 -92.1022 0
      vertex -39.5884 -91.7331 1
      vertex -39.0805 -92.1022 1
    endloop
  endfacet
  facet normal 0.587878 0.80895 0
    outer loop
      vertex -39.5884 -91.7331 1
      vertex -39.0805 -92.1022 0
      vertex -39.5884 -91.7331 0
    endloop
  endfacet
  facet normal 0.982305 0.187288 0
    outer loop
      vertex -92.7235 -37.6448 1
      vertex -92.8411 -37.028 0
      vertex -92.8411 -37.028 1
    endloop
  endfacet
  facet normal 0.982305 0.187288 0
    outer loop
      vertex -92.8411 -37.028 0
      vertex -92.7235 -37.6448 1
      vertex -92.7235 -37.6448 0
    endloop
  endfacet
  facet normal -0.997969 0.0637003 0
    outer loop
      vertex -100.008 -0.125333 0
      vertex -100 0 1
      vertex -100 0 0
    endloop
  endfacet
  facet normal -0.997969 0.0637003 0
    outer loop
      vertex -100 0 1
      vertex -100.008 -0.125333 0
      vertex -100.008 -0.125333 1
    endloop
  endfacet
  facet normal 0 1 -0
    outer loop
      vertex -100.937 -0.998026 0
      vertex -104.022 -0.998026 1
      vertex -100.937 -0.998026 1
    endloop
  endfacet
  facet normal 0 1 0
    outer loop
      vertex -104.022 -0.998026 1
      vertex -100.937 -0.998026 0
      vertex -104.022 -0.998026 0
    endloop
  endfacet
  facet normal -0.125925 0.99204 0
    outer loop
      vertex -100.813 -0.982286 0
      vertex -100.937 -0.998026 1
      vertex -100.813 -0.982286 1
    endloop
  endfacet
  facet normal -0.125925 0.99204 0
    outer loop
      vertex -100.937 -0.998026 1
      vertex -100.813 -0.982286 0
      vertex -100.937 -0.998026 0
    endloop
  endfacet
  facet normal -0.7707 0.637199 0
    outer loop
      vertex -100.271 -0.684546 0
      vertex -100.191 -0.587785 1
      vertex -100.191 -0.587785 0
    endloop
  endfacet
  facet normal -0.7707 0.637199 0
    outer loop
      vertex -100.191 -0.587785 1
      vertex -100.271 -0.684546 0
      vertex -100.271 -0.684546 1
    endloop
  endfacet
  facet normal -0.903197 0.429227 0
    outer loop
      vertex -100.124 -0.481753 0
      vertex -100.07 -0.368124 1
      vertex -100.07 -0.368124 0
    endloop
  endfacet
  facet normal -0.903197 0.429227 0
    outer loop
      vertex -100.07 -0.368124 1
      vertex -100.124 -0.481753 0
      vertex -100.124 -0.481753 1
    endloop
  endfacet
  facet normal -0.481913 0.876219 0
    outer loop
      vertex -100.464 -0.844327 0
      vertex -100.574 -0.904826 1
      vertex -100.464 -0.844327 1
    endloop
  endfacet
  facet normal -0.481913 0.876219 0
    outer loop
      vertex -100.574 -0.904826 1
      vertex -100.464 -0.844327 0
      vertex -100.574 -0.904826 0
    endloop
  endfacet
  facet normal -0.682744 0.730658 0
    outer loop
      vertex -100.271 -0.684546 0
      vertex -100.363 -0.770513 1
      vertex -100.271 -0.684546 1
    endloop
  endfacet
  facet normal -0.682744 0.730658 0
    outer loop
      vertex -100.363 -0.770513 1
      vertex -100.271 -0.684546 0
      vertex -100.363 -0.770513 0
    endloop
  endfacet
  facet normal -0.367481 0.930031 0
    outer loop
      vertex -100.574 -0.904826 0
      vertex -100.691 -0.951056 1
      vertex -100.574 -0.904826 1
    endloop
  endfacet
  facet normal -0.367481 0.930031 0
    outer loop
      vertex -100.691 -0.951056 1
      vertex -100.574 -0.904826 0
      vertex -100.691 -0.951056 0
    endloop
  endfacet
  facet normal -0.590049 0.807367 0
    outer loop
      vertex -100.363 -0.770513 0
      vertex -100.464 -0.844327 1
      vertex -100.363 -0.770513 1
    endloop
  endfacet
  facet normal -0.590049 0.807367 0
    outer loop
      vertex -100.464 -0.844327 1
      vertex -100.363 -0.770513 0
      vertex -100.464 -0.844327 0
    endloop
  endfacet
  facet normal -0.845372 0.534178 0
    outer loop
      vertex -100.191 -0.587785 0
      vertex -100.124 -0.481753 1
      vertex -100.124 -0.481753 0
    endloop
  endfacet
  facet normal -0.845372 0.534178 0
    outer loop
      vertex -100.124 -0.481753 1
      vertex -100.191 -0.587785 0
      vertex -100.191 -0.587785 1
    endloop
  endfacet
  facet normal -0.983059 0.183292 0
    outer loop
      vertex -100.031 -0.24869 0
      vertex -100.008 -0.125333 1
      vertex -100.008 -0.125333 0
    endloop
  endfacet
  facet normal -0.983059 0.183292 0
    outer loop
      vertex -100.008 -0.125333 1
      vertex -100.031 -0.24869 0
      vertex -100.031 -0.24869 1
    endloop
  endfacet
  facet normal -0.247988 0.968763 0
    outer loop
      vertex -100.691 -0.951056 0
      vertex -100.813 -0.982286 1
      vertex -100.691 -0.951056 1
    endloop
  endfacet
  facet normal -0.247988 0.968763 0
    outer loop
      vertex -100.813 -0.982286 1
      vertex -100.691 -0.951056 0
      vertex -100.813 -0.982286 0
    endloop
  endfacet
  facet normal -0.950603 0.31041 0
    outer loop
      vertex -100.07 -0.368124 0
      vertex -100.031 -0.24869 1
      vertex -100.031 -0.24869 0
    endloop
  endfacet
  facet normal -0.950603 0.31041 0
    outer loop
      vertex -100.031 -0.24869 1
      vertex -100.07 -0.368124 0
      vertex -100.07 -0.368124 1
    endloop
  endfacet
  facet normal -0.707107 0.707107 0
    outer loop
      vertex -72.8422 -74.2536 0
      vertex -70.6677 -72.0791 1
      vertex -70.6677 -72.0791 0
    endloop
  endfacet
  facet normal -0.707107 0.707107 0
    outer loop
      vertex -70.6677 -72.0791 1
      vertex -72.8422 -74.2536 0
      vertex -72.8422 -74.2536 1
    endloop
  endfacet
  facet normal 0.707107 -0.707107 0
    outer loop
      vertex -74.2536 -72.8422 1
      vertex -72.0791 -70.6677 0
      vertex -72.0791 -70.6677 1
    endloop
  endfacet
  facet normal 0.707107 -0.707107 0
    outer loop
      vertex -72.0791 -70.6677 0
      vertex -74.2536 -72.8422 1
      vertex -74.2536 -72.8422 0
    endloop
  endfacet
  facet normal -0.21811 -0.975924 0
    outer loop
      vertex -71.2614 -70.4301 0
      vertex -71.1388 -70.4575 1
      vertex -71.2614 -70.4301 1
    endloop
  endfacet
  facet normal -0.21811 -0.975924 -0
    outer loop
      vertex -71.1388 -70.4575 1
      vertex -71.2614 -70.4301 0
      vertex -71.1388 -70.4575 0
    endloop
  endfacet
  facet normal 0.613168 -0.789952 0
    outer loop
      vertex -72.0791 -70.6677 0
      vertex -71.9799 -70.5907 1
      vertex -72.0791 -70.6677 1
    endloop
  endfacet
  facet normal 0.613168 -0.789952 0
    outer loop
      vertex -71.9799 -70.5907 1
      vertex -72.0791 -70.6677 0
      vertex -71.9799 -70.5907 0
    endloop
  endfacet
  facet normal -0.562397 -0.826867 0
    outer loop
      vertex -70.9087 -70.557 0
      vertex -70.8049 -70.6276 1
      vertex -70.9087 -70.557 1
    endloop
  endfacet
  facet normal -0.562397 -0.826867 -0
    outer loop
      vertex -70.8049 -70.6276 1
      vertex -70.9087 -70.557 0
      vertex -70.8049 -70.6276 0
    endloop
  endfacet
  facet normal -0.45389 -0.891058 0
    outer loop
      vertex -71.0206 -70.5 0
      vertex -70.9087 -70.557 1
      vertex -71.0206 -70.5 1
    endloop
  endfacet
  facet normal -0.45389 -0.891058 -0
    outer loop
      vertex -70.9087 -70.557 1
      vertex -71.0206 -70.5 0
      vertex -70.9087 -70.557 0
    endloop
  endfacet
  facet normal 0.278715 -0.960374 0
    outer loop
      vertex -71.7565 -70.4769 0
      vertex -71.6359 -70.4419 1
      vertex -71.7565 -70.4769 1
    endloop
  endfacet
  facet normal 0.278715 -0.960374 0
    outer loop
      vertex -71.6359 -70.4419 1
      vertex -71.7565 -70.4769 0
      vertex -71.6359 -70.4419 0
    endloop
  endfacet
  facet normal -0.960374 0.278715 0
    outer loop
      vertex -70.4769 -71.7565 0
      vertex -70.4419 -71.6359 1
      vertex -70.4419 -71.6359 0
    endloop
  endfacet
  facet normal -0.960374 0.278715 0
    outer loop
      vertex -70.4419 -71.6359 1
      vertex -70.4769 -71.7565 0
      vertex -70.4769 -71.7565 1
    endloop
  endfacet
  facet normal -0.987614 0.156903 0
    outer loop
      vertex -70.4419 -71.6359 0
      vertex -70.4222 -71.5119 1
      vertex -70.4222 -71.5119 0
    endloop
  endfacet
  facet normal -0.987614 0.156903 0
    outer loop
      vertex -70.4222 -71.5119 1
      vertex -70.4419 -71.6359 0
      vertex -70.4419 -71.6359 1
    endloop
  endfacet
  facet normal -0.826867 -0.562397 0
    outer loop
      vertex -70.557 -70.9087 0
      vertex -70.6276 -70.8049 1
      vertex -70.6276 -70.8049 0
    endloop
  endfacet
  facet normal -0.826867 -0.562397 0
    outer loop
      vertex -70.6276 -70.8049 1
      vertex -70.557 -70.9087 0
      vertex -70.557 -70.9087 1
    endloop
  endfacet
  facet normal -0.338353 -0.941019 0
    outer loop
      vertex -71.1388 -70.4575 0
      vertex -71.0206 -70.5 1
      vertex -71.1388 -70.4575 1
    endloop
  endfacet
  facet normal -0.338353 -0.941019 -0
    outer loop
      vertex -71.0206 -70.5 1
      vertex -71.1388 -70.4575 0
      vertex -71.0206 -70.5 0
    endloop
  endfacet
  facet normal -0.661543 -0.749908 0
    outer loop
      vertex -70.8049 -70.6276 0
      vertex -70.7107 -70.7107 1
      vertex -70.8049 -70.6276 1
    endloop
  endfacet
  facet normal -0.661543 -0.749908 -0
    outer loop
      vertex -70.7107 -70.7107 1
      vertex -70.8049 -70.6276 0
      vertex -70.7107 -70.7107 0
    endloop
  endfacet
  facet normal -0.749908 -0.661543 0
    outer loop
      vertex -70.6276 -70.8049 0
      vertex -70.7107 -70.7107 1
      vertex -70.7107 -70.7107 0
    endloop
  endfacet
  facet normal -0.749908 -0.661543 0
    outer loop
      vertex -70.7107 -70.7107 1
      vertex -70.6276 -70.8049 0
      vertex -70.6276 -70.8049 1
    endloop
  endfacet
  facet normal 0.156903 -0.987614 0
    outer loop
      vertex -71.6359 -70.4419 0
      vertex -71.5119 -70.4222 1
      vertex -71.6359 -70.4419 1
    endloop
  endfacet
  facet normal 0.156903 -0.987614 0
    outer loop
      vertex -71.5119 -70.4222 1
      vertex -71.6359 -70.4419 0
      vertex -71.5119 -70.4222 0
    endloop
  endfacet
  facet normal 0.0310607 -0.999517 0
    outer loop
      vertex -71.5119 -70.4222 0
      vertex -71.3864 -70.4183 1
      vertex -71.5119 -70.4222 1
    endloop
  endfacet
  facet normal 0.0310607 -0.999517 0
    outer loop
      vertex -71.3864 -70.4183 1
      vertex -71.5119 -70.4222 0
      vertex -71.3864 -70.4183 0
    endloop
  endfacet
  facet normal -0.0939822 -0.995574 0
    outer loop
      vertex -71.3864 -70.4183 0
      vertex -71.2614 -70.4301 1
      vertex -71.3864 -70.4183 1
    endloop
  endfacet
  facet normal -0.0939822 -0.995574 -0
    outer loop
      vertex -71.2614 -70.4301 1
      vertex -71.3864 -70.4183 0
      vertex -71.2614 -70.4301 0
    endloop
  endfacet
  facet normal 0.508863 -0.860847 0
    outer loop
      vertex -71.9799 -70.5907 0
      vertex -71.8718 -70.5268 1
      vertex -71.9799 -70.5907 1
    endloop
  endfacet
  facet normal 0.508863 -0.860847 0
    outer loop
      vertex -71.8718 -70.5268 1
      vertex -71.9799 -70.5907 0
      vertex -71.8718 -70.5268 0
    endloop
  endfacet
  facet normal 0.397183 -0.917739 0
    outer loop
      vertex -71.8718 -70.5268 0
      vertex -71.7565 -70.4769 1
      vertex -71.8718 -70.5268 1
    endloop
  endfacet
  facet normal 0.397183 -0.917739 0
    outer loop
      vertex -71.7565 -70.4769 1
      vertex -71.8718 -70.5268 0
      vertex -71.7565 -70.4769 0
    endloop
  endfacet
  facet normal -0.917739 0.397183 0
    outer loop
      vertex -70.5268 -71.8718 0
      vertex -70.4769 -71.7565 1
      vertex -70.4769 -71.7565 0
    endloop
  endfacet
  facet normal -0.917739 0.397183 0
    outer loop
      vertex -70.4769 -71.7565 1
      vertex -70.5268 -71.8718 0
      vertex -70.5268 -71.8718 1
    endloop
  endfacet
  facet normal -0.860847 0.508863 0
    outer loop
      vertex -70.5907 -71.9799 0
      vertex -70.5268 -71.8718 1
      vertex -70.5268 -71.8718 0
    endloop
  endfacet
  facet normal -0.860847 0.508863 0
    outer loop
      vertex -70.5268 -71.8718 1
      vertex -70.5907 -71.9799 0
      vertex -70.5907 -71.9799 1
    endloop
  endfacet
  facet normal -0.789952 0.613168 0
    outer loop
      vertex -70.6677 -72.0791 0
      vertex -70.5907 -71.9799 1
      vertex -70.5907 -71.9799 0
    endloop
  endfacet
  facet normal -0.789952 0.613168 0
    outer loop
      vertex -70.5907 -71.9799 1
      vertex -70.6677 -72.0791 0
      vertex -70.6677 -72.0791 1
    endloop
  endfacet
  facet normal -0.975924 -0.21811 0
    outer loop
      vertex -70.4301 -71.2614 0
      vertex -70.4575 -71.1388 1
      vertex -70.4575 -71.1388 0
    endloop
  endfacet
  facet normal -0.975924 -0.21811 0
    outer loop
      vertex -70.4575 -71.1388 1
      vertex -70.4301 -71.2614 0
      vertex -70.4301 -71.2614 1
    endloop
  endfacet
  facet normal -0.995574 -0.0939822 0
    outer loop
      vertex -70.4183 -71.3864 0
      vertex -70.4301 -71.2614 1
      vertex -70.4301 -71.2614 0
    endloop
  endfacet
  facet normal -0.995574 -0.0939822 0
    outer loop
      vertex -70.4301 -71.2614 1
      vertex -70.4183 -71.3864 0
      vertex -70.4183 -71.3864 1
    endloop
  endfacet
  facet normal -0.999517 0.0310607 0
    outer loop
      vertex -70.4222 -71.5119 0
      vertex -70.4183 -71.3864 1
      vertex -70.4183 -71.3864 0
    endloop
  endfacet
  facet normal -0.999517 0.0310607 0
    outer loop
      vertex -70.4183 -71.3864 1
      vertex -70.4222 -71.5119 0
      vertex -70.4222 -71.5119 1
    endloop
  endfacet
  facet normal -0.891058 -0.45389 0
    outer loop
      vertex -70.5 -71.0206 0
      vertex -70.557 -70.9087 1
      vertex -70.557 -70.9087 0
    endloop
  endfacet
  facet normal -0.891058 -0.45389 0
    outer loop
      vertex -70.557 -70.9087 1
      vertex -70.5 -71.0206 0
      vertex -70.5 -71.0206 1
    endloop
  endfacet
  facet normal -0.941019 -0.338353 0
    outer loop
      vertex -70.4575 -71.1388 0
      vertex -70.5 -71.0206 1
      vertex -70.5 -71.0206 0
    endloop
  endfacet
  facet normal -0.941019 -0.338353 0
    outer loop
      vertex -70.5 -71.0206 1
      vertex -70.4575 -71.1388 0
      vertex -70.4575 -71.1388 1
    endloop
  endfacet
  facet normal 1 -0 0
    outer loop
      vertex -0.998026 -103.983 1
      vertex -0.998026 -100.937 0
      vertex -0.998026 -100.937 1
    endloop
  endfacet
  facet normal 1 0 0
    outer loop
      vertex -0.998026 -100.937 0
      vertex -0.998026 -103.983 1
      vertex -0.998026 -103.983 0
    endloop
  endfacet
  facet normal 0.31041 -0.950603 0
    outer loop
      vertex -0.368124 -100.07 0
      vertex -0.24869 -100.031 1
      vertex -0.368124 -100.07 1
    endloop
  endfacet
  facet normal 0.31041 -0.950603 0
    outer loop
      vertex -0.24869 -100.031 1
      vertex -0.368124 -100.07 0
      vertex -0.24869 -100.031 0
    endloop
  endfacet
  facet normal 0.183292 -0.983059 0
    outer loop
      vertex -0.24869 -100.031 0
      vertex -0.125333 -100.008 1
      vertex -0.24869 -100.031 1
    endloop
  endfacet
  facet normal 0.183292 -0.983059 0
    outer loop
      vertex -0.125333 -100.008 1
      vertex -0.24869 -100.031 0
      vertex -0.125333 -100.008 0
    endloop
  endfacet
  facet normal 0.0637003 -0.997969 0
    outer loop
      vertex -0.125333 -100.008 0
      vertex 0 -100 1
      vertex -0.125333 -100.008 1
    endloop
  endfacet
  facet normal 0.0637003 -0.997969 0
    outer loop
      vertex 0 -100 1
      vertex -0.125333 -100.008 0
      vertex 0 -100 0
    endloop
  endfacet
  facet normal 0.429227 -0.903197 0
    outer loop
      vertex -0.481753 -100.124 0
      vertex -0.368124 -100.07 1
      vertex -0.481753 -100.124 1
    endloop
  endfacet
  facet normal 0.429227 -0.903197 0
    outer loop
      vertex -0.368124 -100.07 1
      vertex -0.481753 -100.124 0
      vertex -0.368124 -100.07 0
    endloop
  endfacet
  facet normal 0.930031 -0.367481 0
    outer loop
      vertex -0.951056 -100.691 1
      vertex -0.904826 -100.574 0
      vertex -0.904826 -100.574 1
    endloop
  endfacet
  facet normal 0.930031 -0.367481 0
    outer loop
      vertex -0.904826 -100.574 0
      vertex -0.951056 -100.691 1
      vertex -0.951056 -100.691 0
    endloop
  endfacet
  facet normal 0.876219 -0.481913 0
    outer loop
      vertex -0.904826 -100.574 1
      vertex -0.844327 -100.464 0
      vertex -0.844327 -100.464 1
    endloop
  endfacet
  facet normal 0.876219 -0.481913 0
    outer loop
      vertex -0.844327 -100.464 0
      vertex -0.904826 -100.574 1
      vertex -0.904826 -100.574 0
    endloop
  endfacet
  facet normal 0.807367 -0.590049 0
    outer loop
      vertex -0.844327 -100.464 1
      vertex -0.770513 -100.363 0
      vertex -0.770513 -100.363 1
    endloop
  endfacet
  facet normal 0.807367 -0.590049 0
    outer loop
      vertex -0.770513 -100.363 0
      vertex -0.844327 -100.464 1
      vertex -0.844327 -100.464 0
    endloop
  endfacet
  facet normal 0.637199 -0.7707 0
    outer loop
      vertex -0.684546 -100.271 0
      vertex -0.587785 -100.191 1
      vertex -0.684546 -100.271 1
    endloop
  endfacet
  facet normal 0.637199 -0.7707 0
    outer loop
      vertex -0.587785 -100.191 1
      vertex -0.684546 -100.271 0
      vertex -0.587785 -100.191 0
    endloop
  endfacet
  facet normal 0.534178 -0.845372 0
    outer loop
      vertex -0.587785 -100.191 0
      vertex -0.481753 -100.124 1
      vertex -0.587785 -100.191 1
    endloop
  endfacet
  facet normal 0.534178 -0.845372 0
    outer loop
      vertex -0.481753 -100.124 1
      vertex -0.587785 -100.191 0
      vertex -0.481753 -100.124 0
    endloop
  endfacet
  facet normal 0.99204 -0.125925 0
    outer loop
      vertex -0.998026 -100.937 1
      vertex -0.982286 -100.813 0
      vertex -0.982286 -100.813 1
    endloop
  endfacet
  facet normal 0.99204 -0.125925 0
    outer loop
      vertex -0.982286 -100.813 0
      vertex -0.998026 -100.937 1
      vertex -0.998026 -100.937 0
    endloop
  endfacet
  facet normal 0.968763 -0.247988 0
    outer loop
      vertex -0.982286 -100.813 1
      vertex -0.951056 -100.691 0
      vertex -0.951056 -100.691 1
    endloop
  endfacet
  facet normal 0.968763 -0.247988 0
    outer loop
      vertex -0.951056 -100.691 0
      vertex -0.982286 -100.813 1
      vertex -0.982286 -100.813 0
    endloop
  endfacet
  facet normal 0.730658 -0.682744 0
    outer loop
      vertex -0.770513 -100.363 1
      vertex -0.684546 -100.271 0
      vertex -0.684546 -100.271 1
    endloop
  endfacet
  facet normal 0.730658 -0.682744 0
    outer loop
      vertex -0.684546 -100.271 0
      vertex -0.770513 -100.363 1
      vertex -0.770513 -100.363 0
    endloop
  endfacet
  facet normal 1 -0 0
    outer loop
      vertex 0 -100 1
      vertex 0 -92.8707 0
      vertex 0 -92.8707 1
    endloop
  endfacet
  facet normal 1 0 0
    outer loop
      vertex 0 -92.8707 0
      vertex 0 -100 1
      vertex 0 -100 0
    endloop
  endfacet
  facet normal 0 1 -0
    outer loop
      vertex -92.8806 0 0
      vertex -100 0 1
      vertex -92.8806 0 1
    endloop
  endfacet
  facet normal 0 1 0
    outer loop
      vertex -100 0 1
      vertex -92.8806 0 0
      vertex -100 0 0
    endloop
  endfacet
  facet normal -0 0 1
    outer loop
      vertex -100.691 -0.951056 1
      vertex -92.8806 -36.4013 1
      vertex -92.8806 0 1
    endloop
  endfacet
  facet normal 0 0 1
    outer loop
      vertex -100.008 -0.125333 1
      vertex -92.8806 0 1
      vertex -100 0 1
    endloop
  endfacet
  facet normal 0 0 1
    outer loop
      vertex -100.031 -0.24869 1
      vertex -92.8806 0 1
      vertex -100.008 -0.125333 1
    endloop
  endfacet
  facet normal 0 0 1
    outer loop
      vertex -100.07 -0.368124 1
      vertex -92.8806 0 1
      vertex -100.031 -0.24869 1
    endloop
  endfacet
  facet normal 0 0 1
    outer loop
      vertex -100.124 -0.481753 1
      vertex -92.8806 0 1
      vertex -100.07 -0.368124 1
    endloop
  endfacet
  facet normal 0 0 1
    outer loop
      vertex -100.191 -0.587785 1
      vertex -92.8806 0 1
      vertex -100.124 -0.481753 1
    endloop
  endfacet
  facet normal 0 0 1
    outer loop
      vertex -100.271 -0.684546 1
      vertex -92.8806 0 1
      vertex -100.191 -0.587785 1
    endloop
  endfacet
  facet normal 0 -0 1
    outer loop
      vertex -103.865 -37.3099 1
      vertex -92.8806 -36.4013 1
      vertex -104.022 -34.8032 1
    endloop
  endfacet
  facet normal 0 0 1
    outer loop
      vertex -100.363 -0.770513 1
      vertex -92.8806 0 1
      vertex -100.271 -0.684546 1
    endloop
  endfacet
  facet normal 0 0 1
    outer loop
      vertex -100.464 -0.844327 1
      vertex -92.8806 0 1
      vertex -100.363 -0.770513 1
    endloop
  endfacet
  facet normal 0 0 1
    outer loop
      vertex -100.574 -0.904826 1
      vertex -92.8806 0 1
      vertex -100.464 -0.844327 1
    endloop
  endfacet
  facet normal 0 0 1
    outer loop
      vertex -100.691 -0.951056 1
      vertex -92.8806 0 1
      vertex -100.574 -0.904826 1
    endloop
  endfacet
  facet normal 0 0 1
    outer loop
      vertex -92.8806 -36.4013 1
      vertex -100.691 -0.951056 1
      vertex -104.022 -34.8032 1
    endloop
  endfacet
  facet normal 0 0 1
    outer loop
      vertex -104.022 -34.8032 1
      vertex -100.691 -0.951056 1
      vertex -100.813 -0.982286 1
    endloop
  endfacet
  facet normal 0 0 1
    outer loop
      vertex -104.022 -34.8032 1
      vertex -100.813 -0.982286 1
      vertex -100.937 -0.998026 1
    endloop
  endfacet
  facet normal 0 0 1
    outer loop
      vertex -92.8806 -36.4013 1
      vertex -100.203 -46.5589 1
      vertex -98.6017 -48.4941 1
    endloop
  endfacet
  facet normal 0 0 1
    outer loop
      vertex -92.8806 -36.4013 1
      vertex -101.548 -44.4383 1
      vertex -100.203 -46.5589 1
    endloop
  endfacet
  facet normal 0 0 1
    outer loop
      vertex -92.8806 -36.4013 1
      vertex -102.618 -42.1657 1
      vertex -101.548 -44.4383 1
    endloop
  endfacet
  facet normal 0 0 1
    outer loop
      vertex -92.8806 -36.4013 1
      vertex -103.394 -39.777 1
      vertex -102.618 -42.1657 1
    endloop
  endfacet
  facet normal 0 0 1
    outer loop
      vertex -104.022 -34.8032 1
      vertex -100.937 -0.998026 1
      vertex -104.022 -0.998026 1
    endloop
  endfacet
  facet normal 0 0 1
    outer loop
      vertex -92.8806 -36.4013 1
      vertex -103.865 -37.3099 1
      vertex -103.394 -39.777 1
    endloop
  endfacet
  facet normal 0 0 1
    outer loop
      vertex 0 -92.8707 1
      vertex -0.125333 -100.008 1
      vertex 0 -100 1
    endloop
  endfacet
  facet normal 0 0 1
    outer loop
      vertex 0 -92.8707 1
      vertex -0.24869 -100.031 1
      vertex -0.125333 -100.008 1
    endloop
  endfacet
  facet normal 0 0 1
    outer loop
      vertex 0 -92.8707 1
      vertex -0.368124 -100.07 1
      vertex -0.24869 -100.031 1
    endloop
  endfacet
  facet normal 0 0 1
    outer loop
      vertex 0 -92.8707 1
      vertex -0.481753 -100.124 1
      vertex -0.368124 -100.07 1
    endloop
  endfacet
  facet normal 0 0 1
    outer loop
      vertex 0 -92.8707 1
      vertex -0.587785 -100.191 1
      vertex -0.481753 -100.124 1
    endloop
  endfacet
  facet normal 0 0 1
    outer loop
      vertex 0 -92.8707 1
      vertex -0.684546 -100.271 1
      vertex -0.587785 -100.191 1
    endloop
  endfacet
  facet normal 0 0 1
    outer loop
      vertex 0 -92.8707 1
      vertex -0.770513 -100.363 1
      vertex -0.684546 -100.271 1
    endloop
  endfacet
  facet normal 0 0 1
    outer loop
      vertex 0 -92.8707 1
      vertex -0.844327 -100.464 1
      vertex -0.770513 -100.363 1
    endloop
  endfacet
  facet normal 0 0 1
    outer loop
      vertex 0 -92.8707 1
      vertex -0.904826 -100.574 1
      vertex -0.844327 -100.464 1
    endloop
  endfacet
  facet normal 0 0 1
    outer loop
      vertex 0 -92.8707 1
      vertex -0.951056 -100.691 1
      vertex -0.904826 -100.574 1
    endloop
  endfacet
  facet normal -0 0 1
    outer loop
      vertex -36.7153 -92.8707 1
      vertex -0.951056 -100.691 1
      vertex 0 -92.8707 1
    endloop
  endfacet
  facet normal 0 0 1
    outer loop
      vertex -0.951056 -100.691 1
      vertex -36.7153 -92.8707 1
      vertex -0.982286 -100.813 1
    endloop
  endfacet
  facet normal 0 0 1
    outer loop
      vertex -0.998026 -100.937 1
      vertex -36.059 -103.983 1
      vertex -0.998026 -103.983 1
    endloop
  endfacet
  facet normal 0 -0 1
    outer loop
      vertex -36.059 -103.983 1
      vertex -0.982286 -100.813 1
      vertex -36.7153 -92.8707 1
    endloop
  endfacet
  facet normal 0 0 1
    outer loop
      vertex -0.982286 -100.813 1
      vertex -36.059 -103.983 1
      vertex -0.998026 -100.937 1
    endloop
  endfacet
  facet normal 0 0 1
    outer loop
      vertex -38.5508 -103.668 1
      vertex -36.7153 -92.8707 1
      vertex -37.3382 -92.792 1
    endloop
  endfacet
  facet normal 0 0 1
    outer loop
      vertex -40.9835 -103.043 1
      vertex -37.3382 -92.792 1
      vertex -37.9464 -92.6358 1
    endloop
  endfacet
  facet normal 0 0 1
    outer loop
      vertex -43.3188 -102.119 1
      vertex -37.9464 -92.6358 1
      vertex -38.5302 -92.4047 1
    endloop
  endfacet
  facet normal 0 0 1
    outer loop
      vertex -36.7153 -92.8707 1
      vertex -38.5508 -103.668 1
      vertex -36.059 -103.983 1
    endloop
  endfacet
  facet normal 0 0 1
    outer loop
      vertex -43.3188 -102.119 1
      vertex -38.5302 -92.4047 1
      vertex -39.0805 -92.1022 1
    endloop
  endfacet
  facet normal 0 0 1
    outer loop
      vertex -45.5197 -100.909 1
      vertex -39.0805 -92.1022 1
      vertex -39.5884 -91.7331 1
    endloop
  endfacet
  facet normal 0 0 1
    outer loop
      vertex -47.5517 -99.4326 1
      vertex -39.5884 -91.7331 1
      vertex -40.0462 -91.3033 1
    endloop
  endfacet
  facet normal 0 0 1
    outer loop
      vertex -37.3382 -92.792 1
      vertex -40.9835 -103.043 1
      vertex -38.5508 -103.668 1
    endloop
  endfacet
  facet normal 0 0 1
    outer loop
      vertex -37.9464 -92.6358 1
      vertex -43.3188 -102.119 1
      vertex -40.9835 -103.043 1
    endloop
  endfacet
  facet normal 0 0 1
    outer loop
      vertex -39.0805 -92.1022 1
      vertex -45.5197 -100.909 1
      vertex -43.3188 -102.119 1
    endloop
  endfacet
  facet normal 0 0 1
    outer loop
      vertex -39.5884 -91.7331 1
      vertex -47.5517 -99.4326 1
      vertex -45.5197 -100.909 1
    endloop
  endfacet
  facet normal 0 0 1
    outer loop
      vertex -40.0462 -91.3033 1
      vertex -49.3826 -97.7133 1
      vertex -47.5517 -99.4326 1
    endloop
  endfacet
  facet normal -0 0 1
    outer loop
      vertex -70.4222 -71.5119 1
      vertex -40.0462 -91.3033 1
      vertex -70.4183 -71.3864 1
    endloop
  endfacet
  facet normal 0 0 1
    outer loop
      vertex -40.0462 -91.3033 1
      vertex -70.4301 -71.2614 1
      vertex -70.4183 -71.3864 1
    endloop
  endfacet
  facet normal 0 0 1
    outer loop
      vertex -40.0462 -91.3033 1
      vertex -70.4575 -71.1388 1
      vertex -70.4301 -71.2614 1
    endloop
  endfacet
  facet normal 0 0 1
    outer loop
      vertex -40.0462 -91.3033 1
      vertex -70.5 -71.0206 1
      vertex -70.4575 -71.1388 1
    endloop
  endfacet
  facet normal 0 0 1
    outer loop
      vertex -40.0462 -91.3033 1
      vertex -70.557 -70.9087 1
      vertex -70.5 -71.0206 1
    endloop
  endfacet
  facet normal 0 0 1
    outer loop
      vertex -40.0462 -91.3033 1
      vertex -70.6276 -70.8049 1
      vertex -70.557 -70.9087 1
    endloop
  endfacet
  facet normal 0 0 1
    outer loop
      vertex -40.0462 -91.3033 1
      vertex -70.7107 -70.7107 1
      vertex -70.6276 -70.8049 1
    endloop
  endfacet
  facet normal 0 0 1
    outer loop
      vertex -91.5254 -39.8241 1
      vertex -70.7107 -70.7107 1
      vertex -40.0462 -91.3033 1
    endloop
  endfacet
  facet normal 0 0 1
    outer loop
      vertex -70.7107 -70.7107 1
      vertex -91.5254 -39.8241 1
      vertex -70.8049 -70.6276 1
    endloop
  endfacet
  facet normal 0 0 1
    outer loop
      vertex -70.8049 -70.6276 1
      vertex -91.5254 -39.8241 1
      vertex -70.9087 -70.557 1
    endloop
  endfacet
  facet normal 0 0 1
    outer loop
      vertex -91.5254 -39.8241 1
      vertex -71.0206 -70.5 1
      vertex -70.9087 -70.557 1
    endloop
  endfacet
  facet normal 0 0 1
    outer loop
      vertex -91.5254 -39.8241 1
      vertex -71.1388 -70.4575 1
      vertex -71.0206 -70.5 1
    endloop
  endfacet
  facet normal 0 0 1
    outer loop
      vertex -91.5254 -39.8241 1
      vertex -71.2614 -70.4301 1
      vertex -71.1388 -70.4575 1
    endloop
  endfacet
  facet normal 0 0 1
    outer loop
      vertex -91.5254 -39.8241 1
      vertex -71.3864 -70.4183 1
      vertex -71.2614 -70.4301 1
    endloop
  endfacet
  facet normal 0 0 1
    outer loop
      vertex -91.5254 -39.8241 1
      vertex -71.5119 -70.4222 1
      vertex -71.3864 -70.4183 1
    endloop
  endfacet
  facet normal 0 0 1
    outer loop
      vertex -91.5254 -39.8241 1
      vertex -71.6359 -70.4419 1
      vertex -71.5119 -70.4222 1
    endloop
  endfacet
  facet normal 0 0 1
    outer loop
      vertex -91.5254 -39.8241 1
      vertex -71.7565 -70.4769 1
      vertex -71.6359 -70.4419 1
    endloop
  endfacet
  facet normal 0 0 1
    outer loop
      vertex -91.5254 -39.8241 1
      vertex -71.8718 -70.5268 1
      vertex -71.7565 -70.4769 1
    endloop
  endfacet
  facet normal 0 0 1
    outer loop
      vertex -91.5254 -39.8241 1
      vertex -71.9799 -70.5907 1
      vertex -71.8718 -70.5268 1
    endloop
  endfacet
  facet normal -0 0 1
    outer loop
      vertex -98.6017 -48.4941 1
      vertex -71.9799 -70.5907 1
      vertex -91.5254 -39.8241 1
    endloop
  endfacet
  facet normal 0 0 1
    outer loop
      vertex -71.9799 -70.5907 1
      vertex -98.6017 -48.4941 1
      vertex -72.0791 -70.6677 1
    endloop
  endfacet
  facet normal 0 0 1
    outer loop
      vertex -98.6017 -48.4941 1
      vertex -91.5254 -39.8241 1
      vertex -91.9256 -39.3402 1
    endloop
  endfacet
  facet normal 0 0 1
    outer loop
      vertex -98.6017 -48.4941 1
      vertex -91.9256 -39.3402 1
      vertex -92.2621 -38.8101 1
    endloop
  endfacet
  facet normal 0 0 1
    outer loop
      vertex -72.0791 -70.6677 1
      vertex -98.6017 -48.4941 1
      vertex -74.2536 -72.8422 1
    endloop
  endfacet
  facet normal 0 0 1
    outer loop
      vertex -92.5294 -38.2419 1
      vertex -98.6017 -48.4941 1
      vertex -92.2621 -38.8101 1
    endloop
  endfacet
  facet normal 0 0 1
    outer loop
      vertex -92.7235 -37.6448 1
      vertex -98.6017 -48.4941 1
      vertex -92.5294 -38.2419 1
    endloop
  endfacet
  facet normal 0 0 1
    outer loop
      vertex -92.8411 -37.028 1
      vertex -98.6017 -48.4941 1
      vertex -92.7235 -37.6448 1
    endloop
  endfacet
  facet normal 0 0 1
    outer loop
      vertex -98.6017 -48.4941 1
      vertex -92.8411 -37.028 1
      vertex -92.8806 -36.4013 1
    endloop
  endfacet
  facet normal -0 0 1
    outer loop
      vertex -70.4419 -71.6359 1
      vertex -40.0462 -91.3033 1
      vertex -70.4222 -71.5119 1
    endloop
  endfacet
  facet normal -0 0 1
    outer loop
      vertex -70.4769 -71.7565 1
      vertex -40.0462 -91.3033 1
      vertex -70.4419 -71.6359 1
    endloop
  endfacet
  facet normal -0 0 1
    outer loop
      vertex -70.5268 -71.8718 1
      vertex -40.0462 -91.3033 1
      vertex -70.4769 -71.7565 1
    endloop
  endfacet
  facet normal 0 0 1
    outer loop
      vertex -40.0462 -91.3033 1
      vertex -70.5268 -71.8718 1
      vertex -49.3826 -97.7133 1
    endloop
  endfacet
  facet normal -0 0 1
    outer loop
      vertex -70.5907 -71.9799 1
      vertex -49.3826 -97.7133 1
      vertex -70.5268 -71.8718 1
    endloop
  endfacet
  facet normal -0 0 1
    outer loop
      vertex -70.6677 -72.0791 1
      vertex -49.3826 -97.7133 1
      vertex -70.5907 -71.9799 1
    endloop
  endfacet
  facet normal 0 0 1
    outer loop
      vertex -49.3826 -97.7133 1
      vertex -70.6677 -72.0791 1
      vertex -72.8422 -74.2536 1
    endloop
  endfacet
endsolid OpenSCAD_Model
