  0
SECTION
  2
BLOCKS
  0
ENDSEC
  0
SECTION
  2
ENTITIES
  0
LINE
  8
0
 10
-0.998016
 20
-100.937
 11
-0.982285
 21
-100.813
  0
LINE
  8
0
 10
-0.982285
 20
-100.813
 11
-0.95105
 21
-100.691
  0
LINE
  8
0
 10
-0.95105
 20
-100.691
 11
-0.904816
 21
-100.574
  0
LINE
  8
0
 10
-0.904816
 20
-100.574
 11
-0.844315
 21
-100.464
  0
LINE
  8
0
 10
-0.844315
 20
-100.464
 11
-0.770508
 21
-100.363
  0
LINE
  8
0
 10
-0.770508
 20
-100.363
 11
-0.68454
 21
-100.271
  0
LINE
  8
0
 10
-0.68454
 20
-100.271
 11
-0.587784
 21
-100.191
  0
LINE
  8
0
 10
-0.587784
 20
-100.191
 11
-0.48175
 21
-100.124
  0
LINE
  8
0
 10
-0.48175
 20
-100.124
 11
-0.368118
 21
-100.07
  0
LINE
  8
0
 10
-0.368118
 20
-100.07
 11
-0.248688
 21
-100.031
  0
LINE
  8
0
 10
-0.248688
 20
-100.031
 11
-0.12532
 21
-100.008
  0
LINE
  8
0
 10
-0.12532
 20
-100.008
 11
0
 21
-100
  0
LINE
  8
0
 10
0
 20
-100
 11
0.12532
 21
-100.008
  0
LINE
  8
0
 10
0.12532
 20
-100.008
 11
0.248688
 21
-100.031
  0
LINE
  8
0
 10
0.248688
 20
-100.031
 11
0.368118
 21
-100.07
  0
LINE
  8
0
 10
0.368118
 20
-100.07
 11
0.48175
 21
-100.124
  0
LINE
  8
0
 10
0.48175
 20
-100.124
 11
0.587784
 21
-100.191
  0
LINE
  8
0
 10
0.587784
 20
-100.191
 11
0.68454
 21
-100.271
  0
LINE
  8
0
 10
0.68454
 20
-100.271
 11
0.770508
 21
-100.363
  0
LINE
  8
0
 10
0.770508
 20
-100.363
 11
0.844315
 21
-100.464
  0
LINE
  8
0
 10
0.844315
 20
-100.464
 11
0.904816
 21
-100.574
  0
LINE
  8
0
 10
0.904816
 20
-100.574
 11
0.95105
 21
-100.691
  0
LINE
  8
0
 10
0.95105
 20
-100.691
 11
0.982285
 21
-100.813
  0
LINE
  8
0
 10
0.982285
 20
-100.813
 11
0.998016
 21
-100.937
  0
LINE
  8
0
 10
0.998016
 20
-100.937
 11
0.998016
 21
-106.983
  0
LINE
  8
0
 10
0.998016
 20
-106.983
 11
37.3017
 21
-106.983
  0
LINE
  8
0
 10
37.3017
 20
-106.983
 11
39.7935
 21
-106.668
  0
LINE
  8
0
 10
39.7935
 20
-106.668
 11
42.2262
 21
-106.043
  0
LINE
  8
0
 10
42.2262
 20
-106.043
 11
44.5614
 21
-105.119
  0
LINE
  8
0
 10
44.5614
 20
-105.119
 11
46.7624
 21
-103.909
  0
LINE
  8
0
 10
46.7624
 20
-103.909
 11
48.7943
 21
-102.433
  0
LINE
  8
0
 10
48.7943
 20
-102.433
 11
50.6252
 21
-100.713
  0
LINE
  8
0
 10
50.6252
 20
-100.713
 11
74.9635
 21
-76.375
  0
LINE
  8
0
 10
74.9635
 20
-76.375
 11
70.6677
 21
-72.0791
  0
LINE
  8
0
 10
70.6677
 20
-72.0791
 11
70.5907
 21
-71.9799
  0
LINE
  8
0
 10
70.5907
 20
-71.9799
 11
70.5268
 21
-71.8718
  0
LINE
  8
0
 10
70.5268
 20
-71.8718
 11
70.4769
 21
-71.7565
  0
LINE
  8
0
 10
70.4769
 20
-71.7565
 11
70.4419
 21
-71.6359
  0
LINE
  8
0
 10
70.4419
 20
-71.6359
 11
70.4222
 21
-71.5119
  0
LINE
  8
0
 10
70.4222
 20
-71.5119
 11
70.4183
 21
-71.3864
  0
LINE
  8
0
 10
70.4183
 20
-71.3864
 11
70.4301
 21
-71.2614
  0
LINE
  8
0
 10
70.4301
 20
-71.2614
 11
70.4575
 21
-71.1388
  0
LINE
  8
0
 10
70.4575
 20
-71.1388
 11
70.5
 21
-71.0206
  0
LINE
  8
0
 10
70.5
 20
-71.0206
 11
70.557
 21
-70.9087
  0
LINE
  8
0
 10
70.557
 20
-70.9087
 11
70.6276
 21
-70.8049
  0
LINE
  8
0
 10
70.6276
 20
-70.8049
 11
70.7107
 21
-70.7107
  0
LINE
  8
0
 10
70.7107
 20
-70.7107
 11
70.8049
 21
-70.6276
  0
LINE
  8
0
 10
70.8049
 20
-70.6276
 11
70.9087
 21
-70.557
  0
LINE
  8
0
 10
70.9087
 20
-70.557
 11
71.0206
 21
-70.5
  0
LINE
  8
0
 10
71.0206
 20
-70.5
 11
71.1388
 21
-70.4575
  0
LINE
  8
0
 10
71.1388
 20
-70.4575
 11
71.2614
 21
-70.4301
  0
LINE
  8
0
 10
71.2614
 20
-70.4301
 11
71.3864
 21
-70.4183
  0
LINE
  8
0
 10
71.3864
 20
-70.4183
 11
71.5119
 21
-70.4222
  0
LINE
  8
0
 10
71.5119
 20
-70.4222
 11
71.6359
 21
-70.4419
  0
LINE
  8
0
 10
71.6359
 20
-70.4419
 11
71.7565
 21
-70.4769
  0
LINE
  8
0
 10
71.7565
 20
-70.4769
 11
71.8718
 21
-70.5268
  0
LINE
  8
0
 10
71.8718
 20
-70.5268
 11
71.9799
 21
-70.5907
  0
LINE
  8
0
 10
71.9799
 20
-70.5907
 11
72.0791
 21
-70.6677
  0
LINE
  8
0
 10
72.0791
 20
-70.6677
 11
76.375
 21
-74.9635
  0
LINE
  8
0
 10
76.375
 20
-74.9635
 11
101.602
 21
-49.7368
  0
LINE
  8
0
 10
101.602
 20
-49.7368
 11
103.203
 21
-47.8015
  0
LINE
  8
0
 10
103.203
 20
-47.8015
 11
104.548
 21
-45.6809
  0
LINE
  8
0
 10
104.548
 20
-45.6809
 11
105.618
 21
-43.4083
  0
LINE
  8
0
 10
105.618
 20
-43.4083
 11
106.394
 21
-41.0196
  0
LINE
  8
0
 10
106.394
 20
-41.0196
 11
106.865
 21
-38.5525
  0
LINE
  8
0
 10
106.865
 20
-38.5525
 11
107.022
 21
-36.0458
  0
LINE
  8
0
 10
107.022
 20
-36.0458
 11
107.022
 21
-0.998016
  0
LINE
  8
0
 10
107.022
 20
-0.998016
 11
100.937
 21
-0.998016
  0
LINE
  8
0
 10
100.937
 20
-0.998016
 11
100.813
 21
-0.982285
  0
LINE
  8
0
 10
100.813
 20
-0.982285
 11
100.691
 21
-0.95105
  0
LINE
  8
0
 10
100.691
 20
-0.95105
 11
100.574
 21
-0.904816
  0
LINE
  8
0
 10
100.574
 20
-0.904816
 11
100.464
 21
-0.844315
  0
LINE
  8
0
 10
100.464
 20
-0.844315
 11
100.363
 21
-0.770508
  0
LINE
  8
0
 10
100.363
 20
-0.770508
 11
100.271
 21
-0.68454
  0
LINE
  8
0
 10
100.271
 20
-0.68454
 11
100.191
 21
-0.587784
  0
LINE
  8
0
 10
100.191
 20
-0.587784
 11
100.124
 21
-0.48175
  0
LINE
  8
0
 10
100.124
 20
-0.48175
 11
100.07
 21
-0.368118
  0
LINE
  8
0
 10
100.07
 20
-0.368118
 11
100.031
 21
-0.248688
  0
LINE
  8
0
 10
100.031
 20
-0.248688
 11
100.008
 21
-0.12532
  0
LINE
  8
0
 10
100.008
 20
-0.12532
 11
100
 21
0
  0
LINE
  8
0
 10
100
 20
0
 11
100.008
 21
0.12532
  0
LINE
  8
0
 10
100.008
 20
0.12532
 11
100.031
 21
0.248688
  0
LINE
  8
0
 10
100.031
 20
0.248688
 11
100.07
 21
0.368118
  0
LINE
  8
0
 10
100.07
 20
0.368118
 11
100.124
 21
0.48175
  0
LINE
  8
0
 10
100.124
 20
0.48175
 11
100.191
 21
0.587784
  0
LINE
  8
0
 10
100.191
 20
0.587784
 11
100.271
 21
0.68454
  0
LINE
  8
0
 10
100.271
 20
0.68454
 11
100.363
 21
0.770508
  0
LINE
  8
0
 10
100.363
 20
0.770508
 11
100.464
 21
0.844315
  0
LINE
  8
0
 10
100.464
 20
0.844315
 11
100.574
 21
0.904816
  0
LINE
  8
0
 10
100.574
 20
0.904816
 11
100.691
 21
0.95105
  0
LINE
  8
0
 10
100.691
 20
0.95105
 11
100.813
 21
0.982285
  0
LINE
  8
0
 10
100.813
 20
0.982285
 11
100.937
 21
0.998016
  0
LINE
  8
0
 10
100.937
 20
0.998016
 11
107.022
 21
0.998016
  0
LINE
  8
0
 10
107.022
 20
0.998016
 11
107.022
 21
36.0458
  0
LINE
  8
0
 10
107.022
 20
36.0458
 11
106.865
 21
38.5525
  0
LINE
  8
0
 10
106.865
 20
38.5525
 11
106.394
 21
41.0196
  0
LINE
  8
0
 10
106.394
 20
41.0196
 11
105.618
 21
43.4083
  0
LINE
  8
0
 10
105.618
 20
43.4083
 11
104.548
 21
45.6809
  0
LINE
  8
0
 10
104.548
 20
45.6809
 11
103.203
 21
47.8015
  0
LINE
  8
0
 10
103.203
 20
47.8015
 11
101.602
 21
49.7368
  0
LINE
  8
0
 10
101.602
 20
49.7368
 11
76.375
 21
74.9635
  0
LINE
  8
0
 10
76.375
 20
74.9635
 11
72.0791
 21
70.6677
  0
LINE
  8
0
 10
72.0791
 20
70.6677
 11
71.9799
 21
70.5907
  0
LINE
  8
0
 10
71.9799
 20
70.5907
 11
71.8718
 21
70.5268
  0
LINE
  8
0
 10
71.8718
 20
70.5268
 11
71.7565
 21
70.4769
  0
LINE
  8
0
 10
71.7565
 20
70.4769
 11
71.6359
 21
70.4419
  0
LINE
  8
0
 10
71.6359
 20
70.4419
 11
71.5119
 21
70.4222
  0
LINE
  8
0
 10
71.5119
 20
70.4222
 11
71.3864
 21
70.4183
  0
LINE
  8
0
 10
71.3864
 20
70.4183
 11
71.2614
 21
70.4301
  0
LINE
  8
0
 10
71.2614
 20
70.4301
 11
71.1388
 21
70.4575
  0
LINE
  8
0
 10
71.1388
 20
70.4575
 11
71.0206
 21
70.5
  0
LINE
  8
0
 10
71.0206
 20
70.5
 11
70.9087
 21
70.557
  0
LINE
  8
0
 10
70.9087
 20
70.557
 11
70.8049
 21
70.6276
  0
LINE
  8
0
 10
70.8049
 20
70.6276
 11
70.7107
 21
70.7107
  0
LINE
  8
0
 10
70.7107
 20
70.7107
 11
70.6276
 21
70.8049
  0
LINE
  8
0
 10
70.6276
 20
70.8049
 11
70.557
 21
70.9087
  0
LINE
  8
0
 10
70.557
 20
70.9087
 11
70.5
 21
71.0206
  0
LINE
  8
0
 10
70.5
 20
71.0206
 11
70.4575
 21
71.1388
  0
LINE
  8
0
 10
70.4575
 20
71.1388
 11
70.4301
 21
71.2614
  0
LINE
  8
0
 10
70.4301
 20
71.2614
 11
70.4183
 21
71.3864
  0
LINE
  8
0
 10
70.4183
 20
71.3864
 11
70.4222
 21
71.5119
  0
LINE
  8
0
 10
70.4222
 20
71.5119
 11
70.4419
 21
71.6359
  0
LINE
  8
0
 10
70.4419
 20
71.6359
 11
70.4769
 21
71.7565
  0
LINE
  8
0
 10
70.4769
 20
71.7565
 11
70.5268
 21
71.8718
  0
LINE
  8
0
 10
70.5268
 20
71.8718
 11
70.5907
 21
71.9799
  0
LINE
  8
0
 10
70.5907
 20
71.9799
 11
70.6677
 21
72.0791
  0
LINE
  8
0
 10
70.6677
 20
72.0791
 11
74.9635
 21
76.375
  0
LINE
  8
0
 10
74.9635
 20
76.375
 11
50.6252
 21
100.713
  0
LINE
  8
0
 10
50.6252
 20
100.713
 11
48.7943
 21
102.433
  0
LINE
  8
0
 10
48.7943
 20
102.433
 11
46.7624
 21
103.909
  0
LINE
  8
0
 10
46.7624
 20
103.909
 11
44.5614
 21
105.119
  0
LINE
  8
0
 10
44.5614
 20
105.119
 11
42.2262
 21
106.043
  0
LINE
  8
0
 10
42.2262
 20
106.043
 11
39.7935
 21
106.668
  0
LINE
  8
0
 10
39.7935
 20
106.668
 11
37.3017
 21
106.983
  0
LINE
  8
0
 10
37.3017
 20
106.983
 11
0.998016
 21
106.983
  0
LINE
  8
0
 10
0.998016
 20
106.983
 11
0.998016
 21
100.937
  0
LINE
  8
0
 10
0.998016
 20
100.937
 11
0.982285
 21
100.813
  0
LINE
  8
0
 10
0.982285
 20
100.813
 11
0.95105
 21
100.691
  0
LINE
  8
0
 10
0.95105
 20
100.691
 11
0.904816
 21
100.574
  0
LINE
  8
0
 10
0.904816
 20
100.574
 11
0.844315
 21
100.464
  0
LINE
  8
0
 10
0.844315
 20
100.464
 11
0.770508
 21
100.363
  0
LINE
  8
0
 10
0.770508
 20
100.363
 11
0.68454
 21
100.271
  0
LINE
  8
0
 10
0.68454
 20
100.271
 11
0.587784
 21
100.191
  0
LINE
  8
0
 10
0.587784
 20
100.191
 11
0.48175
 21
100.124
  0
LINE
  8
0
 10
0.48175
 20
100.124
 11
0.368118
 21
100.07
  0
LINE
  8
0
 10
0.368118
 20
100.07
 11
0.248688
 21
100.031
  0
LINE
  8
0
 10
0.248688
 20
100.031
 11
0.12532
 21
100.008
  0
LINE
  8
0
 10
0.12532
 20
100.008
 11
0
 21
100
  0
LINE
  8
0
 10
0
 20
100
 11
-0.12532
 21
100.008
  0
LINE
  8
0
 10
-0.12532
 20
100.008
 11
-0.248688
 21
100.031
  0
LINE
  8
0
 10
-0.248688
 20
100.031
 11
-0.368118
 21
100.07
  0
LINE
  8
0
 10
-0.368118
 20
100.07
 11
-0.48175
 21
100.124
  0
LINE
  8
0
 10
-0.48175
 20
100.124
 11
-0.587784
 21
100.191
  0
LINE
  8
0
 10
-0.587784
 20
100.191
 11
-0.68454
 21
100.271
  0
LINE
  8
0
 10
-0.68454
 20
100.271
 11
-0.770508
 21
100.363
  0
LINE
  8
0
 10
-0.770508
 20
100.363
 11
-0.844315
 21
100.464
  0
LINE
  8
0
 10
-0.844315
 20
100.464
 11
-0.904816
 21
100.574
  0
LINE
  8
0
 10
-0.904816
 20
100.574
 11
-0.95105
 21
100.691
  0
LINE
  8
0
 10
-0.95105
 20
100.691
 11
-0.982285
 21
100.813
  0
LINE
  8
0
 10
-0.982285
 20
100.813
 11
-0.998016
 21
100.937
  0
LINE
  8
0
 10
-0.998016
 20
100.937
 11
-0.998016
 21
106.983
  0
LINE
  8
0
 10
-0.998016
 20
106.983
 11
-37.3017
 21
106.983
  0
LINE
  8
0
 10
-37.3017
 20
106.983
 11
-39.7935
 21
106.668
  0
LINE
  8
0
 10
-39.7935
 20
106.668
 11
-42.2262
 21
106.043
  0
LINE
  8
0
 10
-42.2262
 20
106.043
 11
-44.5614
 21
105.119
  0
LINE
  8
0
 10
-44.5614
 20
105.119
 11
-46.7624
 21
103.909
  0
LINE
  8
0
 10
-46.7624
 20
103.909
 11
-48.7943
 21
102.433
  0
LINE
  8
0
 10
-48.7943
 20
102.433
 11
-50.6252
 21
100.713
  0
LINE
  8
0
 10
-50.6252
 20
100.713
 11
-74.9635
 21
76.375
  0
LINE
  8
0
 10
-74.9635
 20
76.375
 11
-70.6677
 21
72.0791
  0
LINE
  8
0
 10
-70.6677
 20
72.0791
 11
-70.5907
 21
71.9799
  0
LINE
  8
0
 10
-70.5907
 20
71.9799
 11
-70.5268
 21
71.8718
  0
LINE
  8
0
 10
-70.5268
 20
71.8718
 11
-70.4769
 21
71.7565
  0
LINE
  8
0
 10
-70.4769
 20
71.7565
 11
-70.4419
 21
71.6359
  0
LINE
  8
0
 10
-70.4419
 20
71.6359
 11
-70.4222
 21
71.5119
  0
LINE
  8
0
 10
-70.4222
 20
71.5119
 11
-70.4183
 21
71.3864
  0
LINE
  8
0
 10
-70.4183
 20
71.3864
 11
-70.4301
 21
71.2614
  0
LINE
  8
0
 10
-70.4301
 20
71.2614
 11
-70.4575
 21
71.1388
  0
LINE
  8
0
 10
-70.4575
 20
71.1388
 11
-70.5
 21
71.0206
  0
LINE
  8
0
 10
-70.5
 20
71.0206
 11
-70.557
 21
70.9087
  0
LINE
  8
0
 10
-70.557
 20
70.9087
 11
-70.6276
 21
70.8049
  0
LINE
  8
0
 10
-70.6276
 20
70.8049
 11
-70.7107
 21
70.7107
  0
LINE
  8
0
 10
-70.7107
 20
70.7107
 11
-70.8049
 21
70.6276
  0
LINE
  8
0
 10
-70.8049
 20
70.6276
 11
-70.9087
 21
70.557
  0
LINE
  8
0
 10
-70.9087
 20
70.557
 11
-71.0206
 21
70.5
  0
LINE
  8
0
 10
-71.0206
 20
70.5
 11
-71.1388
 21
70.4575
  0
LINE
  8
0
 10
-71.1388
 20
70.4575
 11
-71.2614
 21
70.4301
  0
LINE
  8
0
 10
-71.2614
 20
70.4301
 11
-71.3864
 21
70.4183
  0
LINE
  8
0
 10
-71.3864
 20
70.4183
 11
-71.5119
 21
70.4222
  0
LINE
  8
0
 10
-71.5119
 20
70.4222
 11
-71.6359
 21
70.4419
  0
LINE
  8
0
 10
-71.6359
 20
70.4419
 11
-71.7565
 21
70.4769
  0
LINE
  8
0
 10
-71.7565
 20
70.4769
 11
-71.8718
 21
70.5268
  0
LINE
  8
0
 10
-71.8718
 20
70.5268
 11
-71.9799
 21
70.5907
  0
LINE
  8
0
 10
-71.9799
 20
70.5907
 11
-72.0791
 21
70.6677
  0
LINE
  8
0
 10
-72.0791
 20
70.6677
 11
-76.375
 21
74.9635
  0
LINE
  8
0
 10
-76.375
 20
74.9635
 11
-101.602
 21
49.7368
  0
LINE
  8
0
 10
-101.602
 20
49.7368
 11
-103.203
 21
47.8015
  0
LINE
  8
0
 10
-103.203
 20
47.8015
 11
-104.548
 21
45.6809
  0
LINE
  8
0
 10
-104.548
 20
45.6809
 11
-105.618
 21
43.4083
  0
LINE
  8
0
 10
-105.618
 20
43.4083
 11
-106.394
 21
41.0196
  0
LINE
  8
0
 10
-106.394
 20
41.0196
 11
-106.865
 21
38.5525
  0
LINE
  8
0
 10
-106.865
 20
38.5525
 11
-107.022
 21
36.0458
  0
LINE
  8
0
 10
-107.022
 20
36.0458
 11
-107.022
 21
0.998016
  0
LINE
  8
0
 10
-107.022
 20
0.998016
 11
-100.937
 21
0.998016
  0
LINE
  8
0
 10
-100.937
 20
0.998016
 11
-100.813
 21
0.982285
  0
LINE
  8
0
 10
-100.813
 20
0.982285
 11
-100.691
 21
0.95105
  0
LINE
  8
0
 10
-100.691
 20
0.95105
 11
-100.574
 21
0.904816
  0
LINE
  8
0
 10
-100.574
 20
0.904816
 11
-100.464
 21
0.844315
  0
LINE
  8
0
 10
-100.464
 20
0.844315
 11
-100.363
 21
0.770508
  0
LINE
  8
0
 10
-100.363
 20
0.770508
 11
-100.271
 21
0.68454
  0
LINE
  8
0
 10
-100.271
 20
0.68454
 11
-100.191
 21
0.587784
  0
LINE
  8
0
 10
-100.191
 20
0.587784
 11
-100.124
 21
0.48175
  0
LINE
  8
0
 10
-100.124
 20
0.48175
 11
-100.07
 21
0.368118
  0
LINE
  8
0
 10
-100.07
 20
0.368118
 11
-100.031
 21
0.248688
  0
LINE
  8
0
 10
-100.031
 20
0.248688
 11
-100.008
 21
0.12532
  0
LINE
  8
0
 10
-100.008
 20
0.12532
 11
-100
 21
0
  0
LINE
  8
0
 10
-100
 20
0
 11
-100.008
 21
-0.12532
  0
LINE
  8
0
 10
-100.008
 20
-0.12532
 11
-100.031
 21
-0.248688
  0
LINE
  8
0
 10
-100.031
 20
-0.248688
 11
-100.07
 21
-0.368118
  0
LINE
  8
0
 10
-100.07
 20
-0.368118
 11
-100.124
 21
-0.48175
  0
LINE
  8
0
 10
-100.124
 20
-0.48175
 11
-100.191
 21
-0.587784
  0
LINE
  8
0
 10
-100.191
 20
-0.587784
 11
-100.271
 21
-0.68454
  0
LINE
  8
0
 10
-100.271
 20
-0.68454
 11
-100.363
 21
-0.770508
  0
LINE
  8
0
 10
-100.363
 20
-0.770508
 11
-100.464
 21
-0.844315
  0
LINE
  8
0
 10
-100.464
 20
-0.844315
 11
-100.574
 21
-0.904816
  0
LINE
  8
0
 10
-100.574
 20
-0.904816
 11
-100.691
 21
-0.95105
  0
LINE
  8
0
 10
-100.691
 20
-0.95105
 11
-100.813
 21
-0.982285
  0
LINE
  8
0
 10
-100.813
 20
-0.982285
 11
-100.937
 21
-0.998016
  0
LINE
  8
0
 10
-100.937
 20
-0.998016
 11
-107.022
 21
-0.998016
  0
LINE
  8
0
 10
-107.022
 20
-0.998016
 11
-107.022
 21
-36.0458
  0
LINE
  8
0
 10
-107.022
 20
-36.0458
 11
-106.865
 21
-38.5525
  0
LINE
  8
0
 10
-106.865
 20
-38.5525
 11
-106.394
 21
-41.0196
  0
LINE
  8
0
 10
-106.394
 20
-41.0196
 11
-105.618
 21
-43.4083
  0
LINE
  8
0
 10
-105.618
 20
-43.4083
 11
-104.548
 21
-45.6809
  0
LINE
  8
0
 10
-104.548
 20
-45.6809
 11
-103.203
 21
-47.8015
  0
LINE
  8
0
 10
-103.203
 20
-47.8015
 11
-101.602
 21
-49.7368
  0
LINE
  8
0
 10
-101.602
 20
-49.7368
 11
-76.375
 21
-74.9635
  0
LINE
  8
0
 10
-76.375
 20
-74.9635
 11
-72.0791
 21
-70.6677
  0
LINE
  8
0
 10
-72.0791
 20
-70.6677
 11
-71.9799
 21
-70.5907
  0
LINE
  8
0
 10
-71.9799
 20
-70.5907
 11
-71.8718
 21
-70.5268
  0
LINE
  8
0
 10
-71.8718
 20
-70.5268
 11
-71.7565
 21
-70.4769
  0
LINE
  8
0
 10
-71.7565
 20
-70.4769
 11
-71.6359
 21
-70.4419
  0
LINE
  8
0
 10
-71.6359
 20
-70.4419
 11
-71.5119
 21
-70.4222
  0
LINE
  8
0
 10
-71.5119
 20
-70.4222
 11
-71.3864
 21
-70.4183
  0
LINE
  8
0
 10
-71.3864
 20
-70.4183
 11
-71.2614
 21
-70.4301
  0
LINE
  8
0
 10
-71.2614
 20
-70.4301
 11
-71.1388
 21
-70.4575
  0
LINE
  8
0
 10
-71.1388
 20
-70.4575
 11
-71.0206
 21
-70.5
  0
LINE
  8
0
 10
-71.0206
 20
-70.5
 11
-70.9087
 21
-70.557
  0
LINE
  8
0
 10
-70.9087
 20
-70.557
 11
-70.8049
 21
-70.6276
  0
LINE
  8
0
 10
-70.8049
 20
-70.6276
 11
-70.7107
 21
-70.7107
  0
LINE
  8
0
 10
-70.7107
 20
-70.7107
 11
-70.6276
 21
-70.8049
  0
LINE
  8
0
 10
-70.6276
 20
-70.8049
 11
-70.557
 21
-70.9087
  0
LINE
  8
0
 10
-70.557
 20
-70.9087
 11
-70.5
 21
-71.0206
  0
LINE
  8
0
 10
-70.5
 20
-71.0206
 11
-70.4575
 21
-71.1388
  0
LINE
  8
0
 10
-70.4575
 20
-71.1388
 11
-70.4301
 21
-71.2614
  0
LINE
  8
0
 10
-70.4301
 20
-71.2614
 11
-70.4183
 21
-71.3864
  0
LINE
  8
0
 10
-70.4183
 20
-71.3864
 11
-70.4222
 21
-71.5119
  0
LINE
  8
0
 10
-70.4222
 20
-71.5119
 11
-70.4419
 21
-71.6359
  0
LINE
  8
0
 10
-70.4419
 20
-71.6359
 11
-70.4769
 21
-71.7565
  0
LINE
  8
0
 10
-70.4769
 20
-71.7565
 11
-70.5268
 21
-71.8718
  0
LINE
  8
0
 10
-70.5268
 20
-71.8718
 11
-70.5907
 21
-71.9799
  0
LINE
  8
0
 10
-70.5907
 20
-71.9799
 11
-70.6677
 21
-72.0791
  0
LINE
  8
0
 10
-70.6677
 20
-72.0791
 11
-74.9635
 21
-76.375
  0
LINE
  8
0
 10
-74.9635
 20
-76.375
 11
-50.6252
 21
-100.713
  0
LINE
  8
0
 10
-50.6252
 20
-100.713
 11
-48.7943
 21
-102.433
  0
LINE
  8
0
 10
-48.7943
 20
-102.433
 11
-46.7624
 21
-103.909
  0
LINE
  8
0
 10
-46.7624
 20
-103.909
 11
-44.5614
 21
-105.119
  0
LINE
  8
0
 10
-44.5614
 20
-105.119
 11
-42.2262
 21
-106.043
  0
LINE
  8
0
 10
-42.2262
 20
-106.043
 11
-39.7935
 21
-106.668
  0
LINE
  8
0
 10
-39.7935
 20
-106.668
 11
-37.3017
 21
-106.983
  0
LINE
  8
0
 10
-37.3017
 20
-106.983
 11
-0.998016
 21
-106.983
  0
LINE
  8
0
 10
-0.998016
 20
-106.983
 11
-0.998016
 21
-100.937
  0
LINE
  8
0
 10
-36.7153
 20
-92.8707
 11
-37.3382
 21
-92.792
  0
LINE
  8
0
 10
-37.3382
 20
-92.792
 11
-37.9464
 21
-92.6358
  0
LINE
  8
0
 10
-37.9464
 20
-92.6358
 11
-38.5302
 21
-92.4047
  0
LINE
  8
0
 10
-38.5302
 20
-92.4047
 11
-39.0804
 21
-92.1022
  0
LINE
  8
0
 10
-39.0804
 20
-92.1022
 11
-39.5884
 21
-91.7331
  0
LINE
  8
0
 10
-39.5884
 20
-91.7331
 11
-40.0462
 21
-91.3033
  0
LINE
  8
0
 10
-40.0462
 20
-91.3033
 11
-91.5254
 21
-39.8241
  0
LINE
  8
0
 10
-91.5254
 20
-39.8241
 11
-91.9256
 21
-39.3402
  0
LINE
  8
0
 10
-91.9256
 20
-39.3402
 11
-92.2621
 21
-38.8101
  0
LINE
  8
0
 10
-92.2621
 20
-38.8101
 11
-92.5294
 21
-38.2419
  0
LINE
  8
0
 10
-92.5294
 20
-38.2419
 11
-92.7235
 21
-37.6448
  0
LINE
  8
0
 10
-92.7235
 20
-37.6448
 11
-92.8411
 21
-37.028
  0
LINE
  8
0
 10
-92.8411
 20
-37.028
 11
-92.8806
 21
-36.4013
  0
LINE
  8
0
 10
-92.8806
 20
-36.4013
 11
-92.8806
 21
36.4013
  0
LINE
  8
0
 10
-92.8806
 20
36.4013
 11
-92.8411
 21
37.028
  0
LINE
  8
0
 10
-92.8411
 20
37.028
 11
-92.7235
 21
37.6448
  0
LINE
  8
0
 10
-92.7235
 20
37.6448
 11
-92.5294
 21
38.2419
  0
LINE
  8
0
 10
-92.5294
 20
38.2419
 11
-92.2621
 21
38.8101
  0
LINE
  8
0
 10
-92.2621
 20
38.8101
 11
-91.9256
 21
39.3402
  0
LINE
  8
0
 10
-91.9256
 20
39.3402
 11
-91.5254
 21
39.8241
  0
LINE
  8
0
 10
-91.5254
 20
39.8241
 11
-40.0462
 21
91.3033
  0
LINE
  8
0
 10
-40.0462
 20
91.3033
 11
-39.5884
 21
91.7331
  0
LINE
  8
0
 10
-39.5884
 20
91.7331
 11
-39.0804
 21
92.1022
  0
LINE
  8
0
 10
-39.0804
 20
92.1022
 11
-38.5302
 21
92.4047
  0
LINE
  8
0
 10
-38.5302
 20
92.4047
 11
-37.9464
 21
92.6358
  0
LINE
  8
0
 10
-37.9464
 20
92.6358
 11
-37.3382
 21
92.792
  0
LINE
  8
0
 10
-37.3382
 20
92.792
 11
-36.7153
 21
92.8707
  0
LINE
  8
0
 10
-36.7153
 20
92.8707
 11
36.7153
 21
92.8707
  0
LINE
  8
0
 10
36.7153
 20
92.8707
 11
37.3382
 21
92.792
  0
LINE
  8
0
 10
37.3382
 20
92.792
 11
37.9464
 21
92.6358
  0
LINE
  8
0
 10
37.9464
 20
92.6358
 11
38.5302
 21
92.4047
  0
LINE
  8
0
 10
38.5302
 20
92.4047
 11
39.0804
 21
92.1022
  0
LINE
  8
0
 10
39.0804
 20
92.1022
 11
39.5884
 21
91.7331
  0
LINE
  8
0
 10
39.5884
 20
91.7331
 11
40.0462
 21
91.3033
  0
LINE
  8
0
 10
40.0462
 20
91.3033
 11
91.5254
 21
39.8241
  0
LINE
  8
0
 10
91.5254
 20
39.8241
 11
91.9256
 21
39.3402
  0
LINE
  8
0
 10
91.9256
 20
39.3402
 11
92.2621
 21
38.8101
  0
LINE
  8
0
 10
92.2621
 20
38.8101
 11
92.5294
 21
38.2419
  0
LINE
  8
0
 10
92.5294
 20
38.2419
 11
92.7235
 21
37.6448
  0
LINE
  8
0
 10
92.7235
 20
37.6448
 11
92.8411
 21
37.028
  0
LINE
  8
0
 10
92.8411
 20
37.028
 11
92.8806
 21
36.4013
  0
LINE
  8
0
 10
92.8806
 20
36.4013
 11
92.8806
 21
-36.4013
  0
LINE
  8
0
 10
92.8806
 20
-36.4013
 11
92.8411
 21
-37.028
  0
LINE
  8
0
 10
92.8411
 20
-37.028
 11
92.7235
 21
-37.6448
  0
LINE
  8
0
 10
92.7235
 20
-37.6448
 11
92.5294
 21
-38.2419
  0
LINE
  8
0
 10
92.5294
 20
-38.2419
 11
92.2621
 21
-38.8101
  0
LINE
  8
0
 10
92.2621
 20
-38.8101
 11
91.9256
 21
-39.3402
  0
LINE
  8
0
 10
91.9256
 20
-39.3402
 11
91.5254
 21
-39.8241
  0
LINE
  8
0
 10
91.5254
 20
-39.8241
 11
40.0462
 21
-91.3033
  0
LINE
  8
0
 10
40.0462
 20
-91.3033
 11
39.5884
 21
-91.7331
  0
LINE
  8
0
 10
39.5884
 20
-91.7331
 11
39.0804
 21
-92.1022
  0
LINE
  8
0
 10
39.0804
 20
-92.1022
 11
38.5302
 21
-92.4047
  0
LINE
  8
0
 10
38.5302
 20
-92.4047
 11
37.9464
 21
-92.6358
  0
LINE
  8
0
 10
37.9464
 20
-92.6358
 11
37.3382
 21
-92.792
  0
LINE
  8
0
 10
37.3382
 20
-92.792
 11
36.7153
 21
-92.8707
  0
LINE
  8
0
 10
36.7153
 20
-92.8707
 11
-36.7153
 21
-92.8707
  0
ENDSEC
  0
SECTION
  2
OBJECTS
  0
DICTIONARY
  0
ENDSEC
  0
EOF
